<?xml version="1.0" encoding="UTF-8"?> <svg xmlns="http://www.w3.org/2000/svg" viewBox="0 0 134 134"> <defs> <style>.cls-1{fill:#8400a0;}.cls-2{fill:#fff;}</style> </defs> <title>календарь</title> <g id="Слой_2" data-name="Слой 2"> <g id="Communication"> <circle class="cls-1" cx="67" cy="67" r="67"></circle> <path class="cls-2" d="M90.69,92H44.37a2.58,2.58,0,0,1-2.57-2.58V48.22a2.57,2.57,0,0,1,2.57-2.57H90.69a2.58,2.58,0,0,1,2.58,2.57V89.39A2.59,2.59,0,0,1,90.69,92ZM44.37,47.36a.86.86,0,0,0-.85.86V89.39a.85.85,0,0,0,.85.86H90.69a.85.85,0,0,0,.86-.86V48.22a.86.86,0,0,0-.86-.86Z"></path> <path class="cls-2" d="M59,50.79a.85.85,0,0,1-.86-.85V41.36a.86.86,0,1,1,1.71,0v8.58A.85.85,0,0,1,59,50.79Z"></path> <path class="cls-2" d="M76.11,50.79a.86.86,0,0,1-.86-.85V41.36a.86.86,0,0,1,1.72,0v8.58A.85.85,0,0,1,76.11,50.79Z"></path> <path class="cls-2" d="M56.38,65.38H53a.87.87,0,0,1-.86-.86V61.09a.86.86,0,0,1,.86-.86h3.43a.85.85,0,0,1,.86.86v3.43A.86.86,0,0,1,56.38,65.38Zm-2.57-1.72h1.71V61.94H53.81Z"></path> <path class="cls-2" d="M69.25,65.38H65.82a.86.86,0,0,1-.86-.86V61.09a.85.85,0,0,1,.86-.86h3.43a.86.86,0,0,1,.86.86v3.43A.87.87,0,0,1,69.25,65.38Zm-2.57-1.72h1.71V61.94H66.68Z"></path> <path class="cls-2" d="M82.12,65.38H78.68a.86.86,0,0,1-.85-.86V61.09a.85.85,0,0,1,.85-.86h3.44a.85.85,0,0,1,.85.86v3.43A.86.86,0,0,1,82.12,65.38Zm-2.58-1.72h1.72V61.94H79.54Z"></path> <path class="cls-2" d="M56.38,78.24H53a.86.86,0,0,1-.86-.86V74A.86.86,0,0,1,53,73.1h3.43a.85.85,0,0,1,.86.85v3.43A.85.85,0,0,1,56.38,78.24Zm-2.57-1.71h1.71V74.81H53.81Z"></path> <path class="cls-2" d="M69.25,78.24H65.82a.85.85,0,0,1-.86-.86V74a.85.85,0,0,1,.86-.85h3.43a.86.86,0,0,1,.86.85v3.43A.86.86,0,0,1,69.25,78.24Zm-2.57-1.71h1.71V74.81H66.68Z"></path> <path class="cls-2" d="M82.12,78.24H78.68a.85.85,0,0,1-.85-.86V74a.85.85,0,0,1,.85-.85h3.44A.85.85,0,0,1,83,74v3.43A.85.85,0,0,1,82.12,78.24Zm-2.58-1.71h1.72V74.81H79.54Z"></path> </g> </g> </svg> 