<?xml version="1.0" encoding="UTF-8"?> <svg xmlns="http://www.w3.org/2000/svg" viewBox="0 0 134 134"> <defs> <style>.cls-1{fill:#8400a0;}.cls-2{fill:#fff;}</style> </defs> <title>звезды</title> <g id="Слой_2" data-name="Слой 2"> <g id="Communication"> <circle class="cls-1" cx="67" cy="67" r="67"></circle> <path class="cls-2" d="M78.79,84a1.78,1.78,0,0,1-1-.36l-10.22-7a1.3,1.3,0,0,0-.87,0l-10.21,7a1.42,1.42,0,0,1-2-.13,1.59,1.59,0,0,1-.17-1.45l3.08-10.9a1.32,1.32,0,0,0-.27-1l-7.94-8.08a1.56,1.56,0,0,1-.47-1.69,1.54,1.54,0,0,1,1.44-1l10.52-1a1.25,1.25,0,0,0,.85-.62L65.73,48a1.45,1.45,0,0,1,2.79,0l4.23,9.74a1.24,1.24,0,0,0,.86.62l10.51,1a1.5,1.5,0,0,1,1,2.68l-7.94,8.08a1.35,1.35,0,0,0-.27,1L80,82.09a1.62,1.62,0,0,1-.18,1.45A1.24,1.24,0,0,1,78.79,84ZM67.13,74.57a2.83,2.83,0,0,1,1.56.46l8.93,6.11L75,71.73a3.3,3.3,0,0,1,.77-3L83,61.29l-9.62-.89a3.27,3.27,0,0,1-2.51-1.83l-3.78-8.72-3.79,8.73a3.25,3.25,0,0,1-2.51,1.81l-9.61.9,7.31,7.45a3.25,3.25,0,0,1,.76,3l-2.66,9.4L65.56,75A2.84,2.84,0,0,1,67.13,74.57Z"></path> <path class="cls-2" d="M67,97A30,30,0,1,1,97,67,30,30,0,0,1,67,97Zm0-58A28,28,0,1,0,95,67,28,28,0,0,0,67,39Z"></path> </g> </g> </svg> 