<?xml version="1.0" encoding="UTF-8"?> <svg xmlns="http://www.w3.org/2000/svg" viewBox="0 0 134 134"> <defs> <style>.cls-1{fill:#8400a0;}.cls-2{fill:#fff;}</style> </defs> <title>часы</title> <g id="Слой_2" data-name="Слой 2"> <g id="Communication"> <circle class="cls-1" cx="67" cy="67" r="67"></circle> <path class="cls-2" d="M67,97A30,30,0,1,1,97,67,30,30,0,0,1,67,97Zm0-58A28,28,0,1,0,95,67,28,28,0,0,0,67,39Z"></path> <path class="cls-2" d="M67,68a1,1,0,0,1-1-1V49a1,1,0,0,1,2,0V67A1,1,0,0,1,67,68Z"></path> <path class="cls-2" d="M77,80a1,1,0,0,1-.77-.36l-10-12a1,1,0,0,1,1.54-1.28l10,12a1,1,0,0,1-.13,1.41A1,1,0,0,1,77,80Z"></path> </g> </g> </svg> 