<svg xmlns="http://www.w3.org/2000/svg" xmlns:xlink="http://www.w3.org/1999/xlink" width="1206" height="645" viewBox="0 0 1206 645">
    <defs>
        <path id="b" d="M59.264 16.593c.093.02.185.044.278.069a5.963 5.963 0 0 1 3.654 2.773 5.809 5.809 0 0 1 .56 4.51c-.8 2.875-1.618 6.144-2.435 9.718a6.044 6.044 0 0 1-.767 3.507c-.374 1.57-.866 3.77-1.503 6.715-.598 2.767-.971 4.54-1.113 5.28a6.148 6.148 0 0 1-.6 2.934 395.449 395.449 0 0 1-2.365 9.828 6.011 6.011 0 0 1-2.746 3.657 5.667 5.667 0 0 1-4.322.7 8.53 8.53 0 0 1-.272-.067 6.051 6.051 0 0 1-3.593-2.61 5.773 5.773 0 0 1-.825-1.937c-4.807 1.571-9.162 1.934-12.967 1.075a17.011 17.011 0 0 1-5.534-2.332 15.159 15.159 0 0 1-5.95-6.8 20.564 20.564 0 0 1-1.78-8.811v-.046c.116-2.298.47-4.578 1.06-6.804a21.293 21.293 0 0 1 3.17-6.72 29.728 29.728 0 0 1 5.063-5.623 20.967 20.967 0 0 1 7.127-3.893 24.931 24.931 0 0 1 8.991-1.162c2.01.08 4.01.331 5.975.753 1.146.252 2.266.605 3.348 1.055l.43-1.55c.829-3.066 3.977-4.934 7.116-4.22zM36.487 32.925a10.662 10.662 0 0 0-3.986 2.698 16.106 16.106 0 0 0-2.623 4.072 9.552 9.552 0 0 0-.894 4.41v.059c.01 2.752.782 4.566 2.359 5.544.5.321 1.06.549 1.647.672 2.087.46 4.982-.048 8.606-1.51 2.158-.896 2.912-1.339 3.168-1.523.044-.034.327-.271 1.449-1.383l1.187-5.391a344.25 344.25 0 0 1 1.397-6.135 5.735 5.735 0 0 0-1.52-1.555 5.318 5.318 0 0 0-1.295-.42v-.002a24.558 24.558 0 0 0-4.087-.44 12.79 12.79 0 0 0-5.408.904z"/>
        <filter id="a" width="280.9%" height="270%" x="-120.2%" y="-55%" filterUnits="objectBoundingBox">
            <feMorphology in="SourceAlpha" operator="dilate" radius="2" result="shadowSpreadOuter1"/>
            <feOffset dx="-14" dy="15" in="shadowSpreadOuter1" result="shadowOffsetOuter1"/>
            <feGaussianBlur in="shadowOffsetOuter1" result="shadowBlurOuter1" stdDeviation="11"/>
            <feComposite in="shadowBlurOuter1" in2="SourceAlpha" operator="out" result="shadowBlurOuter1"/>
            <feColorMatrix in="shadowBlurOuter1" values="0 0 0 0 0.73577643 0 0 0 0 0.773998916 0 0 0 0 0.911599864 0 0 0 0.674688593 0"/>
        </filter>
        <path id="d" d="M42.052 18.529a5.718 5.718 0 0 1 2.43 3.563c2.192 10.514 3.881 16.484 5.566 22.06.172.578.901 2.637 3.419 9.203 1.638 4.286 2.695 7.983 3.152 10.988.663 4.492.145 8.444-1.536 11.755a11.248 11.248 0 0 1-5.65 5.43c-.896.38-1.832.656-2.79.825-3.375.65-6.75-.026-10.014-2.014-3.157-1.926-5.83-4.733-7.947-8.344a5.643 5.643 0 0 1-.596-4.31 5.377 5.377 0 0 1 2.638-3.47c.204-.116.414-.221.63-.314a5.589 5.589 0 0 1 3.662-.273 5.363 5.363 0 0 1 3.466 2.641c1.143 2.023 2.344 3.397 3.575 4.09l.057.034c1.477.925 2.163.904 2.39.851.088-.021.176-.047.262-.079.062-.058.12-.119.175-.182.17-.218.302-.462.39-.723a5.134 5.134 0 0 0 .234-1.55 16.307 16.307 0 0 0-.153-2.727c-.27-2.129-1.11-5.009-2.487-8.56-2.189-5.643-3.406-8.937-3.727-10.071-1.678-5.52-3.438-11.794-5.77-22.908a5.264 5.264 0 0 1 .783-4.26 5.679 5.679 0 0 1 2.496-2.086c.343-.147.699-.262 1.063-.346a5.263 5.263 0 0 1 4.282.777zM39.587 4.756a6.005 6.005 0 0 1-3.039 7.292l-.214.1h-.002c-.353.15-.718.27-1.092.355a5.977 5.977 0 0 1-7.031-3.937 6.004 6.004 0 0 1 3.252-7.39c.352-.15.717-.269 1.09-.355a5.977 5.977 0 0 1 7.036 3.935z"/>
        <filter id="c" width="389.7%" height="202.5%" x="-158.6%" y="-33%" filterUnits="objectBoundingBox">
            <feMorphology in="SourceAlpha" operator="dilate" radius="1.5" result="shadowSpreadOuter1"/>
            <feOffset dx="-4" dy="15" in="shadowSpreadOuter1" result="shadowOffsetOuter1"/>
            <feGaussianBlur in="shadowOffsetOuter1" result="shadowBlurOuter1" stdDeviation="11"/>
            <feComposite in="shadowBlurOuter1" in2="SourceAlpha" operator="out" result="shadowBlurOuter1"/>
            <feColorMatrix in="shadowBlurOuter1" values="0 0 0 0 0.73577643 0 0 0 0 0.773998916 0 0 0 0 0.911599864 0 0 0 0.674688593 0"/>
        </filter>
        <path id="f" d="M28.869 16.838a2.817 2.817 0 0 1 1.173 1.754c1.058 5.176 1.874 8.115 2.687 10.86.083.285.435 1.299 1.65 4.531.791 2.11 1.302 3.93 1.522 5.41.32 2.211.07 4.157-.741 5.787a5.479 5.479 0 0 1-2.728 2.673 6.12 6.12 0 0 1-1.347.406c-1.63.32-3.258-.012-4.834-.991-1.524-.948-2.815-2.33-3.837-4.108a2.826 2.826 0 0 1-.287-2.122A2.642 2.642 0 0 1 23.4 39.33c.099-.057.2-.109.304-.155a2.65 2.65 0 0 1 1.768-.134c.713.172 1.321.644 1.673 1.3.552.996 1.132 1.672 1.726 2.014l.028.016c.713.456 1.044.445 1.153.42.043-.011.086-.024.127-.04.03-.028.058-.058.085-.09.082-.106.145-.227.188-.355.076-.247.114-.504.113-.763a8.185 8.185 0 0 0-.074-1.343c-.13-1.048-.536-2.466-1.2-4.214-1.057-2.778-1.645-4.4-1.8-4.958-.81-2.717-1.66-5.806-2.785-11.278a2.634 2.634 0 0 1 .377-2.097 2.755 2.755 0 0 1 1.719-1.197 2.5 2.5 0 0 1 2.067.382zm-1.74-6.519a3.003 3.003 0 0 1-1.461 3.617l-.166.08H25.5a3.214 3.214 0 0 1-.546.177 2.989 2.989 0 0 1-3.516-1.969 3.002 3.002 0 0 1 1.626-3.694c.176-.076.359-.135.545-.178a2.989 2.989 0 0 1 3.519 1.967z"/>
        <filter id="e" width="415.9%" height="213.7%" x="-232.5%" y="-30.7%" filterUnits="objectBoundingBox">
            <feMorphology in="SourceAlpha" operator="dilate" radius="1.3" result="shadowSpreadOuter1"/>
            <feOffset dx="-13" dy="12" in="shadowSpreadOuter1" result="shadowOffsetOuter1"/>
            <feGaussianBlur in="shadowOffsetOuter1" result="shadowBlurOuter1" stdDeviation="4.5"/>
            <feComposite in="shadowBlurOuter1" in2="SourceAlpha" operator="out" result="shadowBlurOuter1"/>
            <feColorMatrix in="shadowBlurOuter1" values="0 0 0 0 0.786635298 0 0 0 0 0.681146591 0 0 0 0 0.844174592 0 0 0 0.37270542 0"/>
        </filter>
        <path id="h" d="M45.153 23.586l.087.012c.786.11 1.508.481 2.045 1.052.204.17.374.377.5.609.073.116.134.24.18.367.073.115.129.24.166.369l.265.951.007.038c.06.303.135.627.223.966a7.643 7.643 0 0 1 1.563 1.79l.084.128.013.05c.04.07.128.224.32.545.067.1.141.197.222.288l.039.043.036.048c.546.735.776 1.65.64 2.548a3.374 3.374 0 0 1-1.405 2.322c-.05.04-.105.078-.16.114l.002.007c1.539 5.508 2.944 10.987 3.969 14.988.638 2.486 1.14 4.45 1.39 5.296.267.886.165 1.84-.284 2.654a3.295 3.295 0 0 1-1.694 1.522c-.15.06-.305.112-.463.155a3.686 3.686 0 0 1-2.709-.283 3.31 3.31 0 0 1-1.714-2.092c-.506-1.668-1.216-4.506-1.904-7.251-.402-1.601-.812-3.241-1.181-4.648a12.134 12.134 0 0 1-2.868 1.669c-.445.18-.902.334-1.367.458a11.243 11.243 0 0 1-6.286-.172 11.307 11.307 0 0 1-5.368-3.522c-.733-.828-1.293-2.103-1.717-3.896a10.192 10.192 0 0 1 .937-7.312 14.304 14.304 0 0 1 5.11-5.363c.795-.5 1.633-.931 2.506-1.289a13.913 13.913 0 0 1 5.038-1.042l.052-.106a5.12 5.12 0 0 1 .61-.88c.29-.367.67-.654 1.107-.836.103-.041.209-.077.316-.105a6.906 6.906 0 0 1 1.606-.19l.087-.002zm-5.663 9.901c-.443.204-.868.45-1.27.736-1.01.721-1.766 1.588-2.24 2.572-.45.93-.575 1.8-.383 2.661.144.674.22.976.256 1.106.695.902 1.721 1.423 2.803 1.425a3.63 3.63 0 0 0 1.601-.306 3.867 3.867 0 0 0 1.335-1.037c.245-.304.58-1.002.786-2.603.102-.8.145-1.609.13-2.417-.188-.96-.366-1.842-.532-2.626a5.091 5.091 0 0 0-2.486.49z"/>
        <filter id="g" width="248.6%" height="220.4%" x="-42.1%" y="-31.9%" filterUnits="objectBoundingBox">
            <feMorphology in="SourceAlpha" operator="dilate" radius="1.3" result="shadowSpreadOuter1"/>
            <feOffset dx="9" dy="12" in="shadowSpreadOuter1" result="shadowOffsetOuter1"/>
            <feGaussianBlur in="shadowOffsetOuter1" result="shadowBlurOuter1" stdDeviation="4.5"/>
            <feComposite in="shadowBlurOuter1" in2="SourceAlpha" operator="out" result="shadowBlurOuter1"/>
            <feColorMatrix in="shadowBlurOuter1" values="0 0 0 0 0.786635298 0 0 0 0 0.681146591 0 0 0 0 0.844174592 0 0 0 0.37270542 0"/>
        </filter>
        <path id="j" d="M21.65 54.946A3.96 3.96 0 0 1 19.5 53a4.272 4.272 0 0 1-.283-3.162l.014-.043c.359-1.114.797-2.714 1.3-4.753.514-2.09.87-3.474 1.055-4.113.713-2.575 1.52-5.358 2.401-8.253.166-.58.743-2.37 1.754-5.46l.009-.024c.457-1.323.82-2.385 1.09-3.188l.37-1.27.112-.196.106-.358.095-.14.013-.046.093-.162c.092-.16.185-.305.272-.43.184-.268.396-.514.633-.736l.044-.04.044-.036a4.228 4.228 0 0 1 3.092-.908 4.35 4.35 0 0 1 3.271 1.935c.304.428.57.881.794 1.355l.014.027c.403.924.742 1.874 1.014 2.845.555 1.705 1.24 4.23 2.032 7.501a270.72 270.72 0 0 1 2.404 10.68c2.488-3.406 5.668-7.465 9.478-12.103l1.623-2.017.068-.233.144-.159c.06-.132.11-.25.161-.36.027-.063.04-.102.046-.116l.041-.144.068-.134a6.25 6.25 0 0 1 1.545-1.974 4.55 4.55 0 0 1 4.476-.76 4.48 4.48 0 0 1 1.542 1.01c1.183 1.108 2.312 3.069 1.044 6.152l-.008.025a18.58 18.58 0 0 1-.337.735c-.084.165-.15.29-.196.373a41.058 41.058 0 0 0-.506 2.828l-.005.042c-.946 5.547-2.798 13.403-5.504 23.351l-.009.028a4.273 4.273 0 0 1-1.933 2.516 3.974 3.974 0 0 1-3.218.4 4.678 4.678 0 0 1-.37-.125 4.184 4.184 0 0 1-2.145-1.811 3.982 3.982 0 0 1-.403-3.205c1.262-4.633 2.31-8.677 3.133-12.097a142.643 142.643 0 0 0-3.418 4.663c-.264.402-.634.996-1.102 1.767a90.252 90.252 0 0 0-1.253 2.05l-.028.043-.027.042a10.784 10.784 0 0 1-1.893 2.229c-1.993 1.7-3.837 1.51-5.033 1.051a5.466 5.466 0 0 1-.73-.345c-1.35-.788-2.882-2.387-2.616-5.598l.006-.057.008-.057c.04-.26.073-.49.098-.688.01-.096.019-.17.022-.222 0-.092.005-.184.016-.276-.073-.467-.237-1.404-.49-2.788a329.77 329.77 0 0 0-2.276-10.51c-.574 1.93-1.11 3.803-1.604 5.596-.18.611-.533 1.987-1.061 4.117-.536 2.162-1 3.857-1.381 5.038a3.966 3.966 0 0 1-2.056 2.48c-.977.499-2.108.6-3.158.284a5.147 5.147 0 0 1-.352-.12h-.001z"/>
        <filter id="i" width="208.2%" height="203.4%" x="-79.7%" y="-27.8%" filterUnits="objectBoundingBox">
            <feMorphology in="SourceAlpha" operator="dilate" radius="1.25" result="shadowSpreadOuter1"/>
            <feOffset dx="-13" dy="12" in="shadowSpreadOuter1" result="shadowOffsetOuter1"/>
            <feGaussianBlur in="shadowOffsetOuter1" result="shadowBlurOuter1" stdDeviation="4.5"/>
            <feComposite in="shadowBlurOuter1" in2="SourceAlpha" operator="out" result="shadowBlurOuter1"/>
            <feColorMatrix in="shadowBlurOuter1" values="0 0 0 0 0.786635298 0 0 0 0 0.681146591 0 0 0 0 0.844174592 0 0 0 0.37270542 0"/>
        </filter>
        <path id="l" d="M13.854 39.79a4.057 4.057 0 0 1-.474-.215 3.542 3.542 0 0 1-1.761-2.128c-.3-.92-.195-1.925.287-2.765 3.202-6.026 7.576-12.885 13.003-20.39.088-.147.198-.28.327-.395.071-.077.137-.16.196-.248.136-.193.263-.361.376-.498.128-.162.25-.32.365-.472a839.689 839.689 0 0 0-13.177-2.508c-.225-.04-.447-.1-.661-.178a3.53 3.53 0 0 1-1.685-1.314 3.61 3.61 0 0 1 3.55-5.631c4.042.709 9.016 1.662 14.784 2.832a5.982 5.982 0 0 1 1.234.025 6.32 6.32 0 0 1 1.802.361 4.448 4.448 0 0 1 2.483 2.196c.683 1.318.662 2.851-.065 4.553a14.25 14.25 0 0 1-1.478 2.547c-.445.7-.928 1.374-1.446 2.022l-.03.038-.033.034c-.1.103-.192.211-.279.325-.094.125-.175.23-.246.318l-.004.02-.123.171c-5.242 7.245-9.463 13.828-12.546 19.567a3.592 3.592 0 0 1-4.399 1.733z"/>
        <filter id="k" width="316%" height="245.9%" x="-132%" y="-48.6%" filterUnits="objectBoundingBox">
            <feMorphology in="SourceAlpha" operator="dilate" radius="1.5" result="shadowSpreadOuter1"/>
            <feOffset dx="-6" dy="9" in="shadowSpreadOuter1" result="shadowOffsetOuter1"/>
            <feGaussianBlur in="shadowOffsetOuter1" result="shadowBlurOuter1" stdDeviation="7"/>
            <feComposite in="shadowBlurOuter1" in2="SourceAlpha" operator="out" result="shadowBlurOuter1"/>
            <feColorMatrix in="shadowBlurOuter1" values="0 0 0 0 0.796078431 0 0 0 0 0.929411765 0 0 0 0 0.635294118 0 0 0 1 0"/>
        </filter>
        <path id="n" d="M40.47 67.763a24.77 24.77 0 0 1-4.919-.502c-5.395-1.095-9.46-3.747-12.074-7.883-.507-.806-.9-1.402-1.213-1.881-1.458-2.214-1.64-2.635-3.238-7.513l-.011-.037a5.584 5.584 0 0 1 .396-4.359 5.768 5.768 0 0 1 3.39-2.797 5.973 5.973 0 0 1 1.847-.301 5.585 5.585 0 0 1 2.595.643 5.878 5.878 0 0 1 2.856 3.283l.023.065c1.11 3.453 1.711 4.394 2.902 6.266l.355.56c.865 1.387 2.338 2.271 4.514 2.713a12.4 12.4 0 0 0 6.963-.566c1.141-.434 2.588-1.173 2.943-2.197.794-2.197.253-3.292-.219-3.926-.593-.783-2.12-2.151-5.992-4.183l-.068-.037a60.313 60.313 0 0 0-2.115-1.107 98.664 98.664 0 0 1-2.649-1.375 79.949 79.949 0 0 1-2.391-1.367 30.013 30.013 0 0 1-2.505-1.632c-4.413-3.145-6.74-6.987-6.887-11.403-.163-5.154 2.025-9.125 6.332-11.488a16.675 16.675 0 0 1 8.236-1.972c1.085.004 2.169.076 3.245.218a29.714 29.714 0 0 1 11.36 3.708c2.588 1.45 3.034 1.844 4.058 2.869.325.322.725.722 1.356 1.297a12.35 12.35 0 0 1 2.365 3.061c.183.297.348.604.495.92.118.253.25.5.397.738a5.459 5.459 0 0 1 .782 4.3 5.663 5.663 0 0 1-2.513 3.588 5.624 5.624 0 0 1-3.094.933 6.017 6.017 0 0 1-1.288-.143 5.734 5.734 0 0 1-3.597-2.43c-.105-.15-.317-.49-1.318-2.25a7.893 7.893 0 0 0-.238-.401c-.17-.156-.325-.303-.472-.445a11.898 11.898 0 0 0-3.023-2.21 18.568 18.568 0 0 0-6.69-2.193 13.838 13.838 0 0 0-1.667-.11 5.677 5.677 0 0 0-2.746.555c-.095.053-.333.187-.295 1.022v.071c.008.661.748 1.57 2.036 2.496.522.38 1.111.774 1.76 1.18l1.852 1.03c.533.29 1.322.693 2.327 1.188 1.04.513 1.86.939 2.437 1.268 4.64 2.484 7.843 4.904 9.785 7.398 3.211 4.231 3.873 9.154 1.984 14.653l-.012.035c-1.511 4.148-4.84 7.21-9.898 9.103a24.267 24.267 0 0 1-8.46 1.547z"/>
        <filter id="m" width="285.6%" height="257.5%" x="-88.3%" y="-50.5%" filterUnits="objectBoundingBox">
            <feMorphology in="SourceAlpha" operator="dilate" radius="1.25" result="shadowSpreadOuter1"/>
            <feOffset dx="2" dy="15" in="shadowSpreadOuter1" result="shadowOffsetOuter1"/>
            <feGaussianBlur in="shadowOffsetOuter1" result="shadowBlurOuter1" stdDeviation="11"/>
            <feComposite in="shadowBlurOuter1" in2="SourceAlpha" operator="out" result="shadowBlurOuter1"/>
            <feColorMatrix in="shadowBlurOuter1" values="0 0 0 0 0.73577643 0 0 0 0 0.773998916 0 0 0 0 0.911599864 0 0 0 0.674688593 0"/>
        </filter>
        <path id="p" d="M67.755 98.458a9.675 9.675 0 0 1-1.035-.059 8.19 8.19 0 0 1-5.51-2.966l-.063-.074-.053-.075a11.271 11.271 0 0 1-.819-1.3l-.037-.063-.032-.07a9.37 9.37 0 0 1-.433-1.14c-.016-.042-.053-.117-.095-.212l-.211-.462-.048-.509a3.292 3.292 0 0 0-.127-.467l-.042-.138-.698-3.3c-.74-3.613-1.305-6.096-1.691-7.401l-4.809-16.299c-.164-.573-.317-1.135-.47-1.687a292.18 292.18 0 0 1-2.44 6.037c-2.292 5.46-4.394 9.624-6.417 12.716a22.813 22.813 0 0 1-4.143 5.189c-2.335 2.17-4.899 3.272-7.622 3.272a10.502 10.502 0 0 1-1.572-.122 8.729 8.729 0 0 1-7.249-6.092l-.022-.069a12.93 12.93 0 0 1-.535-4.578l.004-.085.008-.08a37.023 37.023 0 0 1 .201-1.666l-.59-2.578-.652-2.658c-1.022-4.733-2.378-11.895-4.027-21.28-1.642-9.333-2.96-16.342-3.915-20.84-.868-4.386 1.888-8.67 6.225-9.677a8.38 8.38 0 0 1 1.801-.202 7.82 7.82 0 0 1 4.322 1.317 8.278 8.278 0 0 1 3.587 5.019l.024.106c.98 4.616 2.257 11.497 3.906 21.053a653.954 653.954 0 0 0 2.394 13.19 290.44 290.44 0 0 0 2.65-6.585 316.995 316.995 0 0 0 2.998-8.005c1.051-2.96 1.373-3.92 1.463-4.207l.048-.165 1.51-3.47c.465-1.135.808-2 1.046-2.593l.311-2.032a11.899 11.899 0 0 1 1.568-4.51 8.777 8.777 0 0 1 7.78-4.418c.143 0 .291 0 .434.005l.074.005a8.007 8.007 0 0 1 5.647 2.75 6.664 6.664 0 0 1 1.368 1.92c.259.506.434 1.05.518 1.613.123.382.203.777.238 1.178.016.159.048.414.122.849l.02.116.281 3.104c.312 3.236.624 5.868.93 7.804.767 4.277 2.052 9.604 3.817 15.838l2.848 9.645c5.92-12.891 11.481-24.228 16.572-33.783a8.23 8.23 0 0 1 7.173-4.27 7.872 7.872 0 0 1 3.809.998 8.152 8.152 0 0 1 3.933 4.845 8.188 8.188 0 0 1-.636 6.217c-5.94 11.205-12.305 24.298-18.916 38.897-2.081 4.738-2.757 6.096-3.085 6.669a30.582 30.582 0 0 1-3.179 5.093 12.135 12.135 0 0 1-2.836 2.769 9.131 9.131 0 0 1-5.62 1.973z"/>
        <filter id="o" width="160.1%" height="168.4%" x="-36.7%" y="-22.8%" filterUnits="objectBoundingBox">
            <feMorphology in="SourceAlpha" operator="dilate" radius="1.5" result="shadowSpreadOuter1"/>
            <feOffset dx="-6" dy="9" in="shadowSpreadOuter1" result="shadowOffsetOuter1"/>
            <feGaussianBlur in="shadowOffsetOuter1" result="shadowBlurOuter1" stdDeviation="7"/>
            <feComposite in="shadowBlurOuter1" in2="SourceAlpha" operator="out" result="shadowBlurOuter1"/>
            <feColorMatrix in="shadowBlurOuter1" values="0 0 0 0 0.796078431 0 0 0 0 0.929411765 0 0 0 0 0.635294118 0 0 0 1 0"/>
        </filter>
        <path id="r" d="M46.77 15.52l.119.017a4.665 4.665 0 0 1 2.775 1.45c.277.235.508.52.68.84.098.16.18.33.244.506.098.158.174.329.224.508l.36 1.311.01.053c.08.417.182.863.303 1.331.832.709 1.547 1.541 2.12 2.468l.114.176.019.068c.053.098.173.309.434.752.09.139.19.271.3.396l.054.06.048.065a4.76 4.76 0 0 1 .869 3.514 4.662 4.662 0 0 1-1.906 3.2c-.07.054-.144.107-.218.157l.003.01c2.089 7.591 3.995 15.144 5.386 20.66.866 3.426 1.548 6.133 1.888 7.298a4.805 4.805 0 0 1-.386 3.658 4.497 4.497 0 0 1-2.3 2.1 5.622 5.622 0 0 1-.628.212 4.933 4.933 0 0 1-3.676-.389 4.549 4.549 0 0 1-2.327-2.884c-.686-2.299-1.65-6.212-2.583-9.995-.546-2.207-1.103-4.467-1.604-6.407a16.41 16.41 0 0 1-3.891 2.3c-.605.25-1.224.461-1.856.632a15.033 15.033 0 0 1-8.531-.237 15.328 15.328 0 0 1-7.286-4.855c-.993-1.141-1.754-2.898-2.329-5.37-.83-3.4-.378-6.984 1.271-10.078a19.589 19.589 0 0 1 6.934-7.392 22.167 22.167 0 0 1 3.402-1.777 18.632 18.632 0 0 1 6.837-1.436c.023-.048.046-.097.072-.147a7.06 7.06 0 0 1 .827-1.213c.393-.505.91-.901 1.502-1.151.14-.058.284-.107.43-.146a9.235 9.235 0 0 1 2.179-.262l.118-.003zm-8.598 12.855a12.82 12.82 0 0 0-1.997 1.063c-1.587 1.042-2.774 2.294-3.519 3.715-.706 1.343-.902 2.6-.6 3.844.225.973.344 1.41.402 1.598a5.76 5.76 0 0 0 4.404 2.058c.86.03 1.718-.12 2.516-.442a6.037 6.037 0 0 0 2.097-1.499c.386-.439.912-1.447 1.235-3.759.16-1.157.228-2.324.204-3.491-.295-1.388-.575-2.661-.836-3.793a8.61 8.61 0 0 0-3.906.706z"/>
        <filter id="q" width="268.4%" height="235.3%" x="-92.1%" y="-35.3%" filterUnits="objectBoundingBox">
            <feMorphology in="SourceAlpha" operator="dilate" radius="1.5" result="shadowSpreadOuter1"/>
            <feOffset dx="-3" dy="19" in="shadowSpreadOuter1" result="shadowOffsetOuter1"/>
            <feGaussianBlur in="shadowOffsetOuter1" result="shadowBlurOuter1" stdDeviation="7"/>
            <feComposite in="shadowBlurOuter1" in2="SourceAlpha" operator="out" result="shadowBlurOuter1"/>
            <feColorMatrix in="shadowBlurOuter1" values="0 0 0 0 0.796078431 0 0 0 0 0.929411765 0 0 0 0 0.635294118 0 0 0 1 0"/>
        </filter>
        <path id="t" d="M26.236 68.571a15.654 15.654 0 0 1-5.787-3.029c-3.356-2.78-5.01-6.634-4.908-11.447l.003-.04c.038-.684.118-1.365.24-2.04.123-.73.272-1.46.44-2.17.145-.61.224-.928.283-1.119a4.887 4.887 0 0 1 2.042-3.16 4.69 4.69 0 0 1 3.762-.768c.142.03.282.064.42.103a4.917 4.917 0 0 1 2.765 2.015 4.794 4.794 0 0 1 .738 3.754 11.753 11.753 0 0 1-.382 1.88 8.637 8.637 0 0 0-.259 1.018c-.038.24-.063.482-.076.724-.045 1.6.378 2.748 1.288 3.509a6.094 6.094 0 0 0 2.213 1.109c.805.221 1.632.355 2.465.398a17.961 17.961 0 0 0 6.731-1.094c2.128-.772 3.681-1.767 4.62-2.956a13.063 13.063 0 0 0 2.27-4.533c.416-1.45.48-2.98.19-4.462-.579-2.724-2.291-4.473-5.232-5.34l-.088.006-.128-.014a13.617 13.617 0 0 0-.773-.07l-2.842-.211a54.365 54.365 0 0 1-3.05-.224l-.036-.004c-.517-.07-.965-.15-1.335-.237a5.478 5.478 0 0 1-.875-.205 4.836 4.836 0 0 1-2.642-1.956c-1.203-1.643-2.095-4.295.448-7.622l.695-.874.111-.289c.143-.35.33-.83.558-1.428.227-.603 1.088-3.49 1.283-4.033l.021-.054c.259-.64 1.025-2.156 1.765-3.62.479-.953 1.079-2.139 1.172-2.377l.016-.04c.185-.443.28-.701.325-.839l.043-.133.453-.811c.135-.25.303-.478.5-.68a5.227 5.227 0 0 1 1.746-1.373c.475-.24.99-.385 1.518-.43.388-.045.78-.035 1.165.03l.353.018.213.06c.159.047.332.1.52.16.132.024.262.056.391.093.267.08.53.175.785.286.65.26 1.506.639 2.616 1.16 1.421.65 3.753 1.768 7.114 3.412 6.861 3.371 10.751 5.328 11.892 5.982 2.193 1.251 3.122 3.963 2.167 6.324-.954 2.36-3.494 3.63-5.922 2.96-.4-.117-.784-.281-1.145-.49-1.373-.786-5.161-2.708-11.264-5.711a367.22 367.22 0 0 0-5.726-2.69l-2.315 5.788a10.15 10.15 0 0 1 2.273.253l.154.048.208.059c3.466.998 6.281 2.63 8.368 4.852a16.958 16.958 0 0 1 4.241 8.174 20.54 20.54 0 0 1-.273 9.049 22.997 22.997 0 0 1-4.193 8.322c-2.059 2.639-4.986 4.68-8.693 6.064a26.722 26.722 0 0 1-10.93 1.734 21.475 21.475 0 0 1-4.71-.77z"/>
        <filter id="s" width="191.4%" height="181.4%" x="-67.3%" y="-22%" filterUnits="objectBoundingBox">
            <feMorphology in="SourceAlpha" operator="dilate" radius="1.3" result="shadowSpreadOuter1"/>
            <feOffset dx="-13" dy="12" in="shadowSpreadOuter1" result="shadowOffsetOuter1"/>
            <feGaussianBlur in="shadowOffsetOuter1" result="shadowBlurOuter1" stdDeviation="4.5"/>
            <feComposite in="shadowBlurOuter1" in2="SourceAlpha" operator="out" result="shadowBlurOuter1"/>
            <feColorMatrix in="shadowBlurOuter1" values="0 0 0 0 0.786635298 0 0 0 0 0.681146591 0 0 0 0 0.844174592 0 0 0 0.37270542 0"/>
        </filter>
    </defs>
    <g fill="none" fill-rule="evenodd">
        <path d="M773 48h54v54h-54z"/>
        <path fill="#C9D2F7" stroke="#93A1DB" stroke-linejoin="round" stroke-width="2" d="M809.489 64.75c.826.875 1.416 1.663 1.805 2.407.465.924.883 1.871 1.25 2.838.26.656.25 1.389-.027 2.037a2.56 2.56 0 0 1-1.49 1.457 2.719 2.719 0 0 1-2.06-.028 2.553 2.553 0 0 1-1.463-1.514c-.546-1.353-1.057-2.37-1.52-3.025-.428-.603-1.074-1.137-1.92-1.585a5.196 5.196 0 0 0-.119-.06c-1.452-.713-2.843-.635-4.251.238-.93.596-2.001 1.615-3.192 3.035 1.772-.087 3.537.28 5.13 1.066.487.24.957.513 1.408.818 2.377 1.583 3.805 3.6 4.239 5.995.41 2.386-.09 4.565-1.486 6.483-1.361 1.916-3.273 3.132-5.68 3.606-2.007.394-4.056.089-6.09-.908a13.578 13.578 0 0 1-1.203-.671 19.1 19.1 0 0 1-2.533-1.846 9.597 9.597 0 0 1-1.917-2.454 9.857 9.857 0 0 1-1.243-4.23 10.15 10.15 0 0 1 .637-4.378c.458-1.2 1.469-2.852 3.09-5.048 2.128-2.864 4.148-4.897 6.005-6.046 3.074-1.922 6.243-2.109 9.414-.553a11.479 11.479 0 0 1 3.216 2.366zm-9.49 11.824a6.168 6.168 0 0 0-.675-.39c-1.242-.614-2.565-.723-4.044-.335-1.077.289-1.46.44-1.593.505-.392.212-.77.446-1.134.701-.06.879.142 1.759.582 2.529.233.43.539.817.903 1.144l.028.025c.518.452 1.074.855 1.664 1.207.223.14.453.27.689.386.968.479 1.844.636 2.678.48 1.021-.19 1.771-.653 2.293-1.412l.01-.014c.511-.677.704-1.543.53-2.38-.164-.87-.813-1.693-1.93-2.446z" opacity=".3"/>
        <path d="M898 101h116v116H898z"/>
        <path fill="#F9F2FE" stroke="#DDC7E9" stroke-linejoin="round" stroke-width="4" d="M953.028 114.875a23.303 23.303 0 0 1 3.388-.377 32.611 32.611 0 0 1 11.025 1.69 7.952 7.952 0 0 1 5.33 4.953 39.954 39.954 0 0 1 10.094 7.756 42.217 42.217 0 0 1 7.899 11.802l.047.108a53.878 53.878 0 0 1 3.394 12.687 38.928 38.928 0 0 1-4.622 23.881 157.344 157.344 0 0 1 4.517 3.468 8.103 8.103 0 0 1 2.997 5.744 8.287 8.287 0 0 1-1.92 6.103 8.176 8.176 0 0 1-5.748 2.957c-.137.012-.276.02-.41.025a8.34 8.34 0 0 1-5.712-1.92l-.048-.038a61.653 61.653 0 0 0-5.013-3.844c-.17.114-.34.225-.512.332a51.112 51.112 0 0 1-9.191 5.086 39.641 39.641 0 0 1-10.801 2.798 36.45 36.45 0 0 1-3.061.243 36.324 36.324 0 0 1-8.52-.677c-7.138-1.511-13.081-4.843-17.683-9.915a40.703 40.703 0 0 1-9.284-17.802 47.332 47.332 0 0 1-.668-19.6 40.759 40.759 0 0 1 7.494-17.852 38.316 38.316 0 0 1 6.846-6.84 67.768 67.768 0 0 1 7.867-5.503c4.98-2.879 8.995-4.6 12.295-5.265zm-3.217 19.709l-.34.193a43.173 43.173 0 0 0-5.512 3.928 28.4 28.4 0 0 0-4.207 4.106 24.29 24.29 0 0 0-4.412 10.75 31.365 31.365 0 0 0 .379 12.67 23.781 23.781 0 0 0 5.346 10.367 16.25 16.25 0 0 0 9.005 5.112c1.5.31 3.033.438 4.565.378 2.61-.131 5.18-.713 7.592-1.72l-4.887-2.704a7.813 7.813 0 0 1-4.028-5.099 8.621 8.621 0 0 1 .774-6.28 7.949 7.949 0 0 1 5.169-4.048 9.192 9.192 0 0 1 1.9-.28 8.703 8.703 0 0 1 4.43 1.022l10.322 5.748a21.45 21.45 0 0 0 2.345-8.869 24.624 24.624 0 0 0-2.299-11.986l-.03-.058c-2.375-5.322-5.865-9.166-10.664-11.756a19.061 19.061 0 0 0-10.058-2.286c-1.82.081-3.627.354-5.39.812z"/>
        <path d="M1114 101h83v83h-83z"/>
        <g stroke-linejoin="round" opacity=".3" transform="rotate(-51 703.355 -1075.834)">
            <use fill="#000" filter="url(#a)" xlink:href="#b"/>
            <use fill="#C9D2F7" stroke="#93A1DB" stroke-width="4" xlink:href="#b"/>
        </g>
        <path d="M341 10h83v83h-83z"/>
        <g stroke-linejoin="round" opacity=".3" transform="rotate(45 200.827 458.25)">
            <use fill="#000" filter="url(#c)" xlink:href="#d"/>
            <use fill="#C9D2F7" fill-opacity=".99" stroke="#93A1DB" stroke-width="3" xlink:href="#d"/>
        </g>
        <path d="M878 573h54v54h-54z"/>
        <g stroke-linejoin="round" opacity=".3" transform="rotate(62 -9.156 1045.443)">
            <use fill="#000" filter="url(#e)" xlink:href="#f"/>
            <use fill="#E8D2FB" stroke="#8C43B6" stroke-width="2.6" xlink:href="#f"/>
        </g>
        <path d="M27 117h83v83H27z"/>
        <g stroke-linejoin="round" opacity=".3" transform="rotate(45 -86.246 133.178)">
            <use fill="#000" filter="url(#g)" xlink:href="#h"/>
            <use fill="#E8D2FB" stroke="#8C43B6" stroke-width="2.6" xlink:href="#h"/>
        </g>
        <path d="M211 142h83v83h-83z"/>
        <g stroke-linejoin="round" opacity=".3" transform="rotate(-38 352.237 -193.736)">
            <use fill="#000" filter="url(#i)" xlink:href="#j"/>
            <use fill="#E8D2FB" stroke="#8C43B6" stroke-width="2.5" xlink:href="#j"/>
        </g>
        <path d="M-8 468h83v83H-8z"/>
        <g stroke-linejoin="round" opacity=".4" transform="rotate(-50 551.26 253.705)">
            <use fill="#000" filter="url(#k)" xlink:href="#l"/>
            <use fill="#E5FFC5" stroke="#96DA45" stroke-width="3" xlink:href="#l"/>
        </g>
        <g>
            <path d="M69 274h83v83H69z"/>
            <g stroke-linejoin="round" opacity=".3" transform="rotate(30 -435.546 307.02)">
                <use fill="#000" filter="url(#m)" xlink:href="#n"/>
                <use fill="#C9D2F7" fill-opacity=".99" stroke="#93A1DB" stroke-width="2.5" xlink:href="#n"/>
            </g>
        </g>
        <g>
            <path d="M217 451h116v116H217z"/>
            <g stroke-linejoin="round" opacity=".4" transform="rotate(4 -6291.565 3391.524)">
                <use fill="#000" filter="url(#o)" xlink:href="#p"/>
                <use fill="#E5FFC5" stroke="#96DA45" stroke-width="3" xlink:href="#p"/>
            </g>
        </g>
        <g>
            <path d="M977 395h83v83h-83z"/>
            <g stroke-linejoin="round" opacity=".3" transform="rotate(5 -3993.2 11427.01)">
                <use fill="#000" filter="url(#q)" xlink:href="#r"/>
                <use fill="#E5FFC5" stroke="#96DA45" stroke-width="3" xlink:href="#r"/>
            </g>
        </g>
        <g>
            <path d="M597 46h54v54h-54z"/>
            <path fill="#E5FFC5" stroke="#96DA45" stroke-linejoin="round" stroke-width="2" d="M617.578 58.308l.063-.035a2.82 2.82 0 0 1 1.872-.307c.22.013.436.068.635.16.107.042.208.094.304.157.105.041.204.096.294.165l.654.505.024.022c.191.173.404.353.633.536.662.041 1.312.185 1.928.426l.12.044.033.026c.062.028.197.087.485.207.095.034.192.062.29.083l.048.01.047.014c.73.222 1.342.72 1.705 1.389.391.68.482 1.495.25 2.247-.014.052-.03.105-.048.156l.005.004c3.787 2.924 7.471 5.896 10.16 8.067 1.673 1.348 2.993 2.414 3.584 2.856a2.932 2.932 0 0 1 1.151 1.916 2.726 2.726 0 0 1-.343 1.856 3.393 3.393 0 0 1-.226.333 2.974 2.974 0 0 1-1.92 1.15 2.763 2.763 0 0 1-2.18-.553c-1.172-.866-3.07-2.414-4.905-3.91-1.07-.873-2.167-1.768-3.119-2.527a9.923 9.923 0 0 1-1.039 2.535c-.2.34-.423.669-.666.982a9.062 9.062 0 0 1-4.21 2.993 9.275 9.275 0 0 1-5.298.296c-.898-.192-1.908-.768-3.09-1.758a8.69 8.69 0 0 1-3.073-5.355c-.324-2.057-.1-4.166.648-6.115.27-.727.602-1.43.994-2.101a11.236 11.236 0 0 1 2.78-3.188l-.019-.097a4.293 4.293 0 0 1-.044-.89c.005-.389.11-.77.305-1.107.046-.079.098-.154.154-.227.282-.344.603-.653.958-.92l.056-.045zm.164 8.562a8.256 8.256 0 0 0-.622 1.287c-.42 1.12-.56 2.19-.412 3.174.139.93.504 1.623 1.118 2.119.475.392.697.56.796.631a3.717 3.717 0 0 0 3.001-.675 4.03 4.03 0 0 0 1.115-1.181c.279-.474.453-1 .51-1.54.034-.363-.072-1.06-.764-2.32-.347-.63-.745-1.23-1.19-1.794-.663-.57-1.277-1.088-1.828-1.544a5.643 5.643 0 0 0-1.724 1.843z" opacity=".3"/>
        </g>
        <g>
            <g stroke-linejoin="round" opacity=".3" transform="rotate(-51 1146.297 -808.274)">
                <use fill="#000" filter="url(#s)" xlink:href="#t"/>
                <use fill="#E8D2FB" stroke="#8C43B6" stroke-width="2.6" xlink:href="#t"/>
            </g>
            <path d="M1070 544h83v83h-83z"/>
        </g>
        <g>
            <path d="M1123 300h54v54h-54z"/>
            <path fill="#E8D2FB" stroke="#8C43B6" stroke-linejoin="round" stroke-width="2" d="M1140.985 335.764a6.768 6.768 0 0 1-2.108-1.864c-1.116-1.506-1.409-3.281-.867-5.272l.005-.017c.087-.28.191-.555.312-.823.127-.29.266-.579.41-.856a8.79 8.79 0 0 1 .234-.436 2.093 2.093 0 0 1 1.182-1.101 2.033 2.033 0 0 1 1.654.073 2.12 2.12 0 0 1 1.114 1.213 2.044 2.044 0 0 1-.08 1.638 5.008 5.008 0 0 1-.355.743c-.08.127-.15.26-.214.396-.04.096-.076.193-.107.293-.185.66-.127 1.182.175 1.593.221.284.497.52.812.693.314.176.646.317.99.422a7.794 7.794 0 0 0 2.93.248c.971-.1 1.725-.35 2.241-.747a5.584 5.584 0 0 0 1.42-1.648c.325-.56.51-1.19.542-1.836.04-1.193-.495-2.1-1.636-2.767l-.037-.006-.053-.02a5.912 5.912 0 0 0-.316-.11l-1.167-.384c-.53-.161-.953-.3-1.254-.411l-.014-.006a6.33 6.33 0 0 1-.535-.237 2.376 2.376 0 0 1-.345-.177 2.085 2.085 0 0 1-.903-1.09c-.333-.808-.431-2.004.978-3.122l.381-.29.077-.11c.096-.13.224-.31.381-.535.158-.227.818-1.338.956-1.543l.014-.02c.175-.24.653-.79 1.114-1.322.3-.346.674-.776.737-.866l.011-.014a5.31 5.31 0 0 0 .223-.316l.032-.05.273-.29c.083-.09.177-.167.28-.23.26-.192.558-.324.873-.39.224-.05.455-.057.68-.02.167.021.33.067.485.134l.146.044.083.048c.061.035.128.075.2.12.053.024.105.05.155.08.103.06.203.128.299.2.245.176.564.423.975.756.527.418 1.387 1.127 2.623 2.161 2.523 2.118 3.948 3.338 4.358 3.729.788.749.895 1.974.251 2.856a2.147 2.147 0 0 1-2.785.612c-.156-.09-.3-.198-.43-.323-.493-.47-1.879-1.664-4.122-3.55-.83-.683-1.54-1.259-2.117-1.716l-1.57 2.165c.32.08.63.194.925.342l.06.036.081.047c1.347.776 2.356 1.75 3 2.89a7.252 7.252 0 0 1 .927 3.842 8.747 8.747 0 0 1-1.052 3.735 9.832 9.832 0 0 1-2.618 3.023c-1.135.882-2.572 1.426-4.267 1.614a11.595 11.595 0 0 1-4.755-.42 9.32 9.32 0 0 1-1.892-.811z" opacity=".3"/>
        </g>
        <g>
            <path d="M409 572h54v54h-54z"/>
            <path fill="#C9D2F7" stroke="#93A1DB" stroke-linejoin="round" stroke-width="2" d="M433.235 587.94a2.66 2.66 0 0 1 2.077-.578c.691.104 1.304.484 1.7 1.054a94.465 94.465 0 0 0 2.639 3.537c.446.3.788.731.983 1.237.432.565 1.046 1.345 1.874 2.381.778.974 1.28 1.595 1.492 1.849.359.264.645.615.835 1.02 1.02 1.31 1.927 2.502 2.695 3.543a2.65 2.65 0 0 1 .479 1.966 2.566 2.566 0 0 1-1.076 1.77 2.702 2.702 0 0 1-1.902.526 2.52 2.52 0 0 1-.895-.25c-.814 2.104-1.915 3.717-3.278 4.8a7.664 7.664 0 0 1-2.354 1.276 6.702 6.702 0 0 1-3.998.183 8.93 8.93 0 0 1-3.513-1.822l-.016-.013a14.343 14.343 0 0 1-2.029-2.252 9.306 9.306 0 0 1-1.406-2.962 13.152 13.152 0 0 1-.5-3.314 9.412 9.412 0 0 1 .673-3.553 11.3 11.3 0 0 1 2.131-3.444c.593-.676 1.241-1.3 1.938-1.866.408-.328.844-.62 1.302-.87l-.409-.579c-.816-1.137-.569-2.747.558-3.64zm-.27 12.982a4.861 4.861 0 0 0-.235 2.14 6.92 6.92 0 0 0 .615 2.031c.28.604.699 1.122 1.224 1.513l.02.016c.926.744 1.754.964 2.533.674.25-.09.487-.225.696-.4.75-.61 1.408-1.77 1.953-3.447.317-1.004.383-1.39.395-1.531.001-.025.002-.19-.05-.887l-1.469-1.883c-.709-.909-1.254-1.619-1.658-2.159a2.539 2.539 0 0 0-.956.114 2.505 2.505 0 0 0-.51.343 11.64 11.64 0 0 0-1.317 1.322 6.08 6.08 0 0 0-1.242 2.154z" opacity=".3"/>
        </g>
    </g>
</svg>
