<svg xmlns="http://www.w3.org/2000/svg" xmlns:xlink="http://www.w3.org/1999/xlink" width="320" height="426" viewBox="0 0 320 426">
    <defs>
        <path id="b" d="M28.2 14.952c.56.368.952.937 1.094 1.588.987 4.684 1.747 7.344 2.506 9.828.077.258.405 1.175 1.538 4.1.738 1.91 1.214 3.557 1.42 4.896.298 2.001.065 3.762-.692 5.237a5.04 5.04 0 0 1-2.543 2.42c-.404.168-.825.292-1.257.367-1.518.29-3.037-.011-4.507-.897-1.42-.858-2.624-2.11-3.577-3.718a2.492 2.492 0 0 1-.268-1.92c.157-.658.589-1.22 1.187-1.546a2.54 2.54 0 0 1 1.932-.262 2.411 2.411 0 0 1 1.56 1.177c.515.902 1.055 1.513 1.61 1.822l.025.015c.665.413.974.403 1.076.38.04-.01.08-.022.118-.036.028-.025.054-.052.079-.08a1.09 1.09 0 0 0 .175-.323c.071-.223.106-.456.106-.69a7.192 7.192 0 0 0-.07-1.215c-.12-.949-.499-2.232-1.119-3.814-.985-2.514-1.533-3.982-1.677-4.487-.756-2.46-1.548-5.254-2.597-10.206a2.326 2.326 0 0 1 .351-1.898 2.55 2.55 0 0 1 1.124-.93 2.86 2.86 0 0 1 .479-.154 2.39 2.39 0 0 1 1.927.346zm-1.574-5.884a2.653 2.653 0 0 1-1.438 3.266c-.157.067-.318.12-.484.157a2.642 2.642 0 0 1-3.107-1.74 2.653 2.653 0 0 1 1.437-3.265c.156-.066.317-.119.482-.157a2.642 2.642 0 0 1 3.11 1.739z"/>
        <filter id="a" width="713.9%" height="327.4%" x="-336.7%" y="-72.3%" filterUnits="objectBoundingBox">
            <feMorphology in="SourceAlpha" operator="dilate" radius=".7" result="shadowSpreadOuter1"/>
            <feOffset dx="-4" dy="15" in="shadowSpreadOuter1" result="shadowOffsetOuter1"/>
            <feGaussianBlur in="shadowOffsetOuter1" result="shadowBlurOuter1" stdDeviation="11"/>
            <feComposite in="shadowBlurOuter1" in2="SourceAlpha" operator="out" result="shadowBlurOuter1"/>
            <feColorMatrix in="shadowBlurOuter1" values="0 0 0 0 0.73577643 0 0 0 0 0.773998916 0 0 0 0 0.911599864 0 0 0 0.674688593 0"/>
        </filter>
        <path id="d" d="M13.015 6.901c.259.17.44.433.505.733.456 2.162.807 3.39 1.157 4.536.035.119.187.542.71 1.892.34.882.56 1.642.655 2.26.138.924.03 1.736-.32 2.417-.243.5-.66.896-1.173 1.116-.186.079-.38.136-.58.17-.7.134-1.402-.005-2.08-.414-.656-.396-1.211-.973-1.651-1.716a1.15 1.15 0 0 1-.124-.886c.073-.304.272-.563.548-.713a1.172 1.172 0 0 1 .892-.12c.307.07.568.268.72.542.237.416.487.698.743.841l.011.007c.307.19.45.186.497.175a.482.482 0 0 0 .054-.016.492.492 0 0 0 .037-.038.503.503 0 0 0 .08-.148c.033-.104.05-.211.05-.32a3.32 3.32 0 0 0-.032-.56c-.057-.438-.23-1.03-.517-1.76-.455-1.16-.708-1.838-.774-2.071-.349-1.135-.715-2.425-1.2-4.71a1.073 1.073 0 0 1 .163-.876 1.177 1.177 0 0 1 .74-.5c.306-.077.63-.019.89.16zm-.726-2.716a1.224 1.224 0 1 1-2.322.777 1.224 1.224 0 0 1 2.322-.777z"/>
        <filter id="c" width="1430%" height="592.4%" x="-729.6%" y="-156.4%" filterUnits="objectBoundingBox">
            <feMorphology in="SourceAlpha" operator="dilate" radius=".7" result="shadowSpreadOuter1"/>
            <feOffset dx="-4" dy="15" in="shadowSpreadOuter1" result="shadowOffsetOuter1"/>
            <feGaussianBlur in="shadowOffsetOuter1" result="shadowBlurOuter1" stdDeviation="11"/>
            <feComposite in="shadowBlurOuter1" in2="SourceAlpha" operator="out" result="shadowBlurOuter1"/>
            <feColorMatrix in="shadowBlurOuter1" values="0 0 0 0 0.73577643 0 0 0 0 0.773998916 0 0 0 0 0.911599864 0 0 0 0.674688593 0"/>
        </filter>
    </defs>
    <g fill="none" fill-rule="evenodd">
        <path d="M219 23h24v24h-24z"/>
        <path fill="#C9D2F7" stroke="#93A1DB" stroke-linejoin="round" d="M234.537 30.902c.337.357.578.678.737.982.19.377.36.763.51 1.157a1.09 1.09 0 0 1-.011.831c-.11.276-.33.492-.608.594-.27.107-.572.103-.84-.011l-.07-.032a1.042 1.042 0 0 1-.527-.586c-.223-.551-.431-.967-.62-1.233-.175-.247-.438-.465-.783-.647a2.12 2.12 0 0 0-.049-.025c-.592-.29-1.16-.259-1.734.097-.38.243-.816.659-1.302 1.238a4.258 4.258 0 0 1 2.092.435c.2.098.391.21.575.334.97.646 1.552 1.469 1.73 2.445.167.974-.037 1.862-.607 2.645-.555.781-1.335 1.277-2.316 1.47-.82.161-1.655.037-2.484-.37a7.793 7.793 0 0 1-1.524-1.026 3.916 3.916 0 0 1-.783-1.002 4.021 4.021 0 0 1-.507-1.725 4.14 4.14 0 0 1 .26-1.786c.187-.49.599-1.163 1.26-2.059.868-1.168 1.692-1.998 2.45-2.466 1.254-.784 2.546-.86 3.84-.225l.118.06c.444.235.847.54 1.193.905zm-3.87 4.823a2.517 2.517 0 0 0-.275-.16c-.507-.25-1.047-.295-1.65-.136-.44.117-.596.18-.65.206a4.62 4.62 0 0 0-.463.286c-.024.358.059.717.238 1.031.095.175.22.333.368.467l.012.01c.21.184.438.349.679.492.09.058.184.11.28.158.396.195.753.26 1.093.196.417-.078.723-.266.935-.576l.005-.006c.208-.276.286-.63.215-.97-.066-.356-.331-.691-.787-.998z" opacity=".3"/>
        <path d="M268 50h52v52h-52z"/>
        <path fill="#F9F2FE" stroke="#DDC7E9" stroke-linejoin="round" stroke-width="1.8" d="M292.441 57.828a9.507 9.507 0 0 1 1.383-.153c1.528-.03 3.05.203 4.497.689a3.244 3.244 0 0 1 2.174 2.02 16.297 16.297 0 0 1 4.118 3.163 17.218 17.218 0 0 1 3.222 4.814l.019.044c.67 1.662 1.136 3.4 1.385 5.175a15.877 15.877 0 0 1-1.886 9.74c.64.475 1.259.948 1.842 1.415a3.305 3.305 0 0 1 1.223 2.343c.083.9-.2 1.796-.784 2.49a3.336 3.336 0 0 1-2.344 1.205 3.402 3.402 0 0 1-2.497-.773l-.02-.015a25.148 25.148 0 0 0-2.045-1.568c-.07.047-.14.092-.21.136a20.853 20.853 0 0 1-3.749 2.074c-1.407.586-2.89.97-4.406 1.141a14.82 14.82 0 0 1-4.724-.177c-2.912-.616-5.336-1.975-7.213-4.043a16.6 16.6 0 0 1-3.787-7.261 19.303 19.303 0 0 1-.273-7.995 16.625 16.625 0 0 1 3.057-7.281 15.631 15.631 0 0 1 2.793-2.79 27.647 27.647 0 0 1 3.21-2.245c2.031-1.174 3.67-1.876 5.015-2.148zm-1.312 8.04l-.139.078c-.79.475-1.543 1.01-2.249 1.602a11.586 11.586 0 0 0-1.716 1.675 9.907 9.907 0 0 0-1.8 4.385c-.3 1.716-.248 3.474.155 5.167a9.699 9.699 0 0 0 2.18 4.23 6.628 6.628 0 0 0 3.674 2.084 7.7 7.7 0 0 0 1.862.154 9.255 9.255 0 0 0 3.097-.701l-1.994-1.103a3.187 3.187 0 0 1-1.643-2.08 3.516 3.516 0 0 1 .316-2.562 3.243 3.243 0 0 1 2.109-1.65 3.55 3.55 0 0 1 2.583.303l4.21 2.343a8.749 8.749 0 0 0 .956-3.617 10.042 10.042 0 0 0-.937-4.889l-.012-.024c-.97-2.17-2.393-3.738-4.35-4.794a7.776 7.776 0 0 0-4.103-.933c-.743.033-1.48.144-2.2.331z"/>
        <path d="M34 6h52v52H34z"/>
        <g stroke-linejoin="round" opacity=".3" transform="rotate(69 40.807 53.112)">
            <use fill="#000" filter="url(#a)" xlink:href="#b"/>
            <use fill="#C9D2F7" fill-opacity=".99" stroke="#93A1DB" stroke-width="1.4" xlink:href="#b"/>
        </g>
        <path d="M262 371v-24h24v24z"/>
        <g stroke-linejoin="round" opacity=".3" transform="rotate(-21 1077.552 -518.478)">
            <use fill="#000" filter="url(#c)" xlink:href="#d"/>
            <use fill="#C9D2F7" fill-opacity=".99" stroke="#93A1DB" stroke-width="1.4" xlink:href="#d"/>
        </g>
        <path d="M60 367h52v52H60z"/>
        <path fill="#E8D2FB" stroke="#8C43B6" stroke-linejoin="round" stroke-width="1.3" d="M91.676 405.016a6.768 6.768 0 0 1-2.518 1.256c-1.815.471-3.57.077-5.213-1.17l-.013-.012a7.169 7.169 0 0 1-.647-.597 14.358 14.358 0 0 1-.64-.7 8.79 8.79 0 0 1-.317-.381 2.093 2.093 0 0 1-.578-1.509 2.033 2.033 0 0 1 .688-1.506 2.12 2.12 0 0 1 1.542-.578c.57.011 1.11.26 1.488.688.202.187.388.39.556.607.088.121.184.237.287.347.074.073.151.143.232.209.543.418 1.048.56 1.543.434.346-.098.668-.266.946-.493.28-.225.536-.48.762-.76a7.794 7.794 0 0 0 1.328-2.624c.272-.938.32-1.73.147-2.357a5.584 5.584 0 0 0-.997-1.935 4.061 4.061 0 0 0-1.499-1.19c-1.09-.484-2.132-.327-3.178.48l-.02.033-.037.041c-.12.131-.186.21-.22.252l-.794.939c-.349.431-.635.77-.851 1.008l-.01.011a6.33 6.33 0 0 1-.422.407 2.376 2.376 0 0 1-.293.253 2.085 2.085 0 0 1-1.348.43c-.874.006-2.02-.351-2.529-2.077l-.126-.462-.072-.112a30.796 30.796 0 0 0-.354-.554c-.152-.232-.934-1.26-1.073-1.464l-.013-.021c-.157-.252-.488-.9-.808-1.528-.21-.407-.468-.915-.527-1.008l-.01-.015a5.31 5.31 0 0 0-.208-.325l-.036-.049-.166-.362a1.315 1.315 0 0 1-.109-.346 2.252 2.252 0 0 1-.033-.955c.037-.226.117-.442.236-.638.082-.147.185-.281.305-.399l.096-.119.075-.059c.056-.044.118-.09.187-.141.042-.04.086-.078.132-.113.095-.073.195-.14.298-.202.254-.162.603-.365 1.065-.62.586-.333 1.565-.865 2.987-1.624 2.909-1.545 4.573-2.41 5.09-2.643a2.174 2.174 0 0 1 2.741.836 2.147 2.147 0 0 1-.475 2.813c-.142.11-.296.203-.46.276-.62.281-2.247 1.12-4.836 2.492-.944.515-1.744.958-2.384 1.321l1.42 2.266c.192-.267.415-.512.663-.73l.056-.041.073-.058c1.225-.958 2.505-1.53 3.804-1.698a7.252 7.252 0 0 1 3.91.579 8.747 8.747 0 0 1 3.068 2.375 9.832 9.832 0 0 1 1.822 3.56c.393 1.383.359 2.919-.102 4.56-.42 1.554-1.16 3.001-2.17 4.252a9.32 9.32 0 0 1-1.461 1.45z" opacity=".3"/>
        <path d="M185 385h52v52h-52z"/>
        <path fill="#C9D2F7" fill-opacity=".99" stroke="#93A1DB" stroke-linejoin="round" stroke-width="1.4" d="M203.642 422.918a13.332 13.332 0 0 1-2.14-1.542c-2.202-1.94-3.379-4.237-3.494-6.826-.02-.504-.045-.882-.063-1.185-.089-1.401-.061-1.642.489-4.3l.004-.02a2.925 2.925 0 0 1 1.335-1.889 3.07 3.07 0 0 1 2.304-.376c.327.069.642.189.933.355.418.242.771.581 1.029.987.436.675.598 1.485.452 2.263l-.007.036c-.399 1.876-.37 2.467-.315 3.64l.016.351c.033.866.48 1.663 1.369 2.446a6.673 6.673 0 0 0 3.365 1.597c.642.106 1.506.154 1.94-.22.947-.793.986-1.438.936-1.854-.067-.517-.41-1.55-1.663-3.512l-.021-.035a32.276 32.276 0 0 0-.685-1.07 52.804 52.804 0 0 1-.86-1.336c-.22-.357-.47-.782-.744-1.264-.265-.46-.507-.931-.725-1.414-1.208-2.616-1.268-4.994-.17-7.054 1.287-2.401 3.346-3.635 5.96-3.567 1.523.054 3.014.5 4.325 1.294.5.29.982.613 1.441.965a15.952 15.952 0 0 1 4.268 4.726c.812 1.353.914 1.652 1.116 2.394.065.234.144.524.284.956.201.66.297 1.345.284 2.03.006.185 0 .37-.015.553a3.845 3.845 0 0 0-.011.444 2.862 2.862 0 0 1-.775 2.176 2.992 2.992 0 0 1-2.108.972 3.02 3.02 0 0 1-1.676-.399 3.238 3.238 0 0 1-.557-.409 3.059 3.059 0 0 1-1.02-2.07c-.009-.097-.017-.31-.014-1.382 0-.134-.002-.21-.004-.247-.037-.116-.07-.225-.1-.33a6.343 6.343 0 0 0-.813-1.816 9.969 9.969 0 0 0-2.511-2.788 7.45 7.45 0 0 0-.74-.494 3.053 3.053 0 0 0-1.416-.479c-.057 0-.203-.003-.406.389l-.019.033c-.17.304-.069.918.282 1.685.14.312.308.65.501 1.01l.583.964c.17.274.428.67.761 1.164.345.512.61.925.79 1.23 1.488 2.374 2.328 4.335 2.566 5.994.366 2.792-.63 5.221-2.954 7.233l-.015.013c-1.794 1.495-4.14 2.008-6.976 1.525a13.052 13.052 0 0 1-4.316-1.547z" opacity=".3"/>
        <g>
            <path d="M0 73h32v32H0z"/>
            <path fill="#F9F2FE" stroke="#DDC7E9" stroke-linejoin="round" stroke-width="1.2" d="M13.61 98.273c-.385.12-.801.09-1.165-.085a1.723 1.723 0 0 1-.875-.934l-.006-.017c-.163-.443-.42-1.06-.767-1.833a54.162 54.162 0 0 1-.686-1.569c-.413-.995-.847-2.08-1.286-3.218-.09-.226-.352-.938-.798-2.17l-.003-.01c-.183-.534-.332-.962-.445-1.284l-.198-.496-.013-.09-.055-.14-.005-.068-.007-.018-.01-.074a2.515 2.515 0 0 1-.021-.204 1.817 1.817 0 0 1 .019-.391l.004-.024.004-.022c.103-.438.376-.818.757-1.056a1.754 1.754 0 0 1 1.52-.198c.203.06.4.139.59.234l.01.005a8.82 8.82 0 0 1 1.029.652c.6.404 1.444 1.036 2.507 1.88 1.267.998 2.412 1.935 3.416 2.796-.055-1.7-.053-3.779.007-6.199l.015-1.044-.036-.09.006-.087c-.014-.057-.028-.106-.039-.154l-.014-.048-.023-.056-.011-.06a2.52 2.52 0 0 1 0-1.01c.142-.639.611-1.154 1.234-1.353.24-.072.493-.093.741-.062.65.058 1.496.401 1.86 1.696l.003.01c.03.12.056.226.075.317l.03.167c.17.351.353.695.542 1.024l.009.015c1.076 1.997 2.438 4.953 4.047 8.786l.005.01c.167.41.17.868.01 1.28a1.602 1.602 0 0 1-.923.926 1.687 1.687 0 0 1-1.28.01 1.606 1.606 0 0 1-.924-.919c-.749-1.785-1.42-3.33-2.007-4.622.01.833.033 1.612.071 2.33.016.194.046.475.089.836.05.476.087.797.11.962l.002.02.002.02c.038.394.022.79-.048 1.179-.211 1.035-.844 1.432-1.338 1.584-.104.031-.21.055-.318.07-.625.086-1.508-.042-2.22-1.128l-.013-.02-.012-.02a8.84 8.84 0 0 0-.187-.319.956.956 0 0 1-.064-.091c-.14-.13-.424-.388-.848-.765a132.972 132.972 0 0 0-3.332-2.774c.297.756.592 1.483.88 2.176.094.239.323.764.684 1.571.367.82.64 1.474.812 1.944a1.6 1.6 0 0 1-.037 1.299 1.711 1.711 0 0 1-1.075.923z"/>
        </g>
        <g>
            <path d="M-24 137h52v52h-52z"/>
            <path fill="#E5FFC5" stroke="#96DA45" stroke-linejoin="round" stroke-width="2" d="M-.287 181.826a4.341 4.341 0 0 1-.417-.205 3.677 3.677 0 0 1-1.757-2.195l-.013-.042-.01-.04a5.067 5.067 0 0 1-.11-.681l-.004-.033v-.034a4.214 4.214 0 0 1 .02-.548c.002-.02 0-.058-.001-.105l-.007-.228.07-.219a1.48 1.48 0 0 0 .03-.215l.007-.065.291-1.488c.329-1.625.531-2.752.601-3.36l.876-7.588c.033-.266.068-.526.102-.781-.747.763-1.44 1.454-2.07 2.07-1.907 1.857-3.507 3.212-4.887 4.137-.802.599-1.686 1.077-2.625 1.42-1.346.488-2.6.495-3.726.017a4.712 4.712 0 0 1-.629-.326 3.92 3.92 0 0 1-1.927-3.793l.003-.033a5.818 5.818 0 0 1 .584-1.988l.016-.035.018-.031a16.662 16.662 0 0 1 .375-.654l.209-1.171.198-1.214c.409-2.138 1.107-5.34 2.074-9.513.961-4.15 1.648-7.282 2.043-9.312a3.72 3.72 0 0 1 4.274-2.912 3.51 3.51 0 0 1 2.336 1.536 3.72 3.72 0 0 1 .601 2.706l-.009.049c-.406 2.082-1.086 5.153-2.084 9.397-.53 2.252-.973 4.217-1.328 5.878a142.634 142.634 0 0 0 4.9-5.046 77.298 77.298 0 0 0 1.343-1.485l.049-.06 1.234-1.17c.392-.388.686-.686.888-.89l.486-.786a5.354 5.354 0 0 1 1.44-1.591 3.942 3.942 0 0 1 3.994-.464c.06.025.12.051.178.078l.03.016a3.594 3.594 0 0 1 1.852 2.128c.137.328.214.679.228 1.035.018.255-.005.51-.07.758-.016.18-.052.358-.108.53-.021.068-.053.18-.099.372l-.011.052-.43 1.334c-.44 1.394-.773 2.537-.986 3.393-.435 1.904-.84 4.334-1.205 7.223l-.518 4.491c4.713-4.296 9.005-8.012 12.788-11.072a3.697 3.697 0 0 1 3.716-.509c.55.236 1.032.608 1.4 1.081.605.758.884 1.728.775 2.695a3.685 3.685 0 0 1-1.355 2.462c-4.426 3.594-9.357 7.896-14.657 12.778-1.692 1.595-2.21 2.038-2.446 2.218a13.755 13.755 0 0 1-2.21 1.55 5.455 5.455 0 0 1-1.66.648 4.1 4.1 0 0 1-2.67-.17z" opacity=".3"/>
        </g>
        <g>
            <path d="M140 49h24v24h-24z"/>
            <path fill="#E5FFC5" stroke="#96DA45" stroke-linejoin="round" d="M148.902 56.58c.09.006.177.028.259.066a.676.676 0 0 1 .124.063c.043.017.083.04.12.068l.267.206.01.009c.077.07.164.144.258.218.27.017.535.076.786.174l.049.018.013.01c.026.012.08.036.198.085a.861.861 0 0 0 .119.034l.019.004.02.005c.297.091.546.294.695.567a1.157 1.157 0 0 1 .082.98l.002.002a248.385 248.385 0 0 1 4.145 3.29c.682.55 1.22.985 1.461 1.165.254.188.422.469.47.782a1.112 1.112 0 0 1-.233.892c-.19.253-.47.421-.783.47a1.127 1.127 0 0 1-.889-.226c-.478-.353-1.252-.985-2-1.595-.437-.356-.885-.72-1.273-1.03-.093.362-.235.71-.424 1.034a3.697 3.697 0 0 1-1.99 1.622 3.784 3.784 0 0 1-2.16.12c-.366-.078-.778-.313-1.26-.717a3.544 3.544 0 0 1-1.254-2.184 4.849 4.849 0 0 1 .265-2.494c.11-.297.245-.584.405-.858a4.584 4.584 0 0 1 1.134-1.3l-.008-.04a1.75 1.75 0 0 1-.017-.363.928.928 0 0 1 .187-.544c.115-.14.246-.266.39-.375l.023-.018.026-.014a1.15 1.15 0 0 1 .764-.126zm-.02 2.88c-.288.195-.53.453-.703.752-.1.168-.185.344-.253.525-.172.457-.23.894-.169 1.295.057.38.206.662.456.864.194.16.285.229.325.258.423.09.871-.01 1.224-.276.183-.128.338-.292.455-.482.114-.193.185-.407.208-.628.014-.148-.03-.432-.311-.946a5.372 5.372 0 0 0-.486-.732c-.27-.232-.52-.443-.746-.63z" opacity=".3"/>
        </g>
        <g>
            <path d="M333 159v37h-37v-37z"/>
            <path fill="#E5FFC5" stroke="#96DA45" stroke-linejoin="round" d="M321.314 172.724a1.1 1.1 0 0 1-.1.4c-.027.066-.06.13-.1.19a.758.758 0 0 1-.103.185l-.318.411-.014.015c-.108.12-.221.254-.337.398a4.004 4.004 0 0 1-.267 1.213l-.028.075-.017.021c-.017.039-.054.124-.13.305-.021.06-.039.12-.052.183l-.006.03-.009.03c-.14.458-.453.843-.873 1.072-.428.245-.94.302-1.413.156a1.425 1.425 0 0 1-.098-.03l-.003.003a382.927 382.927 0 0 1-5.072 6.39c-.848 1.052-1.518 1.882-1.796 2.253-.29.39-.723.651-1.205.724a1.714 1.714 0 0 1-1.167-.216 2.134 2.134 0 0 1-.21-.142 1.87 1.87 0 0 1-.723-1.207 1.737 1.737 0 0 1 .348-1.371c.544-.738 1.518-1.93 2.459-3.085.549-.673 1.111-1.362 1.588-1.961a6.24 6.24 0 0 1-1.593-.654 5.7 5.7 0 0 1-2.5-3.067 5.833 5.833 0 0 1-.187-3.331c.12-.565.483-1.2 1.105-1.943a5.464 5.464 0 0 1 3.368-1.932 7.475 7.475 0 0 1 3.845.407c.458.17.9.38 1.322.626a7.067 7.067 0 0 1 2.004 1.748l.061-.012a2.7 2.7 0 0 1 .56-.028 1.431 1.431 0 0 1 .839.29c.216.176.41.378.579.601l.028.036.021.04c.199.358.267.774.194 1.177zm-4.44-.03a3.55 3.55 0 0 0-1.16-1.085 5.192 5.192 0 0 0-.809-.39c-.704-.265-1.377-.353-1.996-.26-.585.087-1.02.317-1.332.703-.247.299-.353.438-.397.5-.14.653.016 1.344.425 1.888.198.282.45.52.742.701.299.176.629.285.968.321.229.021.667-.045 1.46-.48a8.282 8.282 0 0 0 1.128-.748c.358-.418.684-.804.97-1.15z" opacity=".3"/>
        </g>
        <g>
            <path d="M10 363h24v24H10z"/>
            <path fill="#C9D2F7" stroke="#93A1DB" stroke-linejoin="round" d="M20.124 370.284l.042-.032c.234-.173.524-.247.806-.204.281.042.531.197.693.43.31.438.671.923 1.076 1.442.182.123.322.299.401.505.176.23.427.549.764.971.318.398.522.65.61.755.145.107.262.25.34.416.416.534.785 1.02 1.099 1.445.168.228.238.516.195.802a1.047 1.047 0 0 1-.439.722 1.102 1.102 0 0 1-1.14.112c-.333.859-.782 1.517-1.338 1.959-.288.229-.614.405-.96.52a2.734 2.734 0 0 1-1.631.075 3.642 3.642 0 0 1-1.433-.743l-.007-.005a5.85 5.85 0 0 1-.827-.919 3.796 3.796 0 0 1-.574-1.208 5.365 5.365 0 0 1-.203-1.352 3.84 3.84 0 0 1 .274-1.45 4.61 4.61 0 0 1 .87-1.404 6.48 6.48 0 0 1 .79-.761c.167-.134.344-.253.531-.356l-.166-.236c-.333-.463-.233-1.12.227-1.484zm-.11 5.296c-.098.285-.13.584-.097.872.042.291.127.57.252.829.114.246.285.458.499.617l.008.007c.377.303.715.393 1.033.274a.941.941 0 0 0 .284-.163c.306-.249.574-.722.797-1.406.129-.41.156-.567.16-.625.001-.01.002-.077-.02-.361l-.599-.768c-.289-.371-.511-.66-.676-.88-.13-.01-.262.005-.39.046a1.022 1.022 0 0 0-.208.14 4.749 4.749 0 0 0-.537.539 2.481 2.481 0 0 0-.507.879z" opacity=".3"/>
        </g>
    </g>
</svg>
