<svg xmlns="http://www.w3.org/2000/svg" xmlns:xlink="http://www.w3.org/1999/xlink" width="729" height="637" viewBox="0 0 729 637">
    <defs>
        <path id="b" d="M19.867 69.249c-.772.327-1.58.565-2.405.71-2.91.561-5.818-.021-8.633-1.735-2.721-1.658-5.026-4.077-6.85-7.188a4.859 4.859 0 0 1-.514-3.713 4.633 4.633 0 0 1 2.274-2.99c.175-.1.357-.19.542-.27a4.82 4.82 0 0 1 3.158-.236 4.623 4.623 0 0 1 2.988 2.276c.985 1.743 2.02 2.926 3.082 3.524l.049.029c1.273.797 1.865.778 2.06.733.076-.018.152-.04.226-.068.053-.05.104-.102.151-.157.146-.187.26-.398.337-.623a4.42 4.42 0 0 0 .2-1.335 14.041 14.041 0 0 0-.131-2.35c-.233-1.833-.956-4.315-2.144-7.375-1.887-4.86-2.936-7.699-3.213-8.676-1.446-4.755-2.964-10.16-4.973-19.736a4.533 4.533 0 0 1 .674-3.67 4.895 4.895 0 0 1 2.152-1.798c.296-.126.602-.225.916-.298a4.54 4.54 0 0 1 3.691.67 4.926 4.926 0 0 1 2.095 3.07c1.89 9.057 3.346 14.2 4.799 19.004.148.499.777 2.273 2.947 7.93 1.412 3.693 2.324 6.877 2.717 9.467.572 3.87.126 7.274-1.324 10.127a9.694 9.694 0 0 1-4.87 4.678z"/>
        <filter id="a" width="436%" height="250%" x="-184%" y="-48.2%" filterUnits="objectBoundingBox">
            <feMorphology in="SourceAlpha" operator="dilate" radius="1.5" result="shadowSpreadOuter1"/>
            <feOffset dx="-4" dy="15" in="shadowSpreadOuter1" result="shadowOffsetOuter1"/>
            <feGaussianBlur in="shadowOffsetOuter1" result="shadowBlurOuter1" stdDeviation="11"/>
            <feComposite in="shadowBlurOuter1" in2="SourceAlpha" operator="out" result="shadowBlurOuter1"/>
            <feColorMatrix in="shadowBlurOuter1" values="0 0 0 0 0.73577643 0 0 0 0 0.773998916 0 0 0 0 0.911599864 0 0 0 0.674688593 0"/>
        </filter>
        <path id="d" d="M7.514 9.804a5.356 5.356 0 0 1-.91.297A4.981 4.981 0 0 1 .746 6.82 5.004 5.004 0 0 1 3.455.662a5.38 5.38 0 0 1 .91-.296 4.981 4.981 0 0 1 5.863 3.278 5.004 5.004 0 0 1-2.712 6.16h-.002z"/>
        <filter id="c" width="940%" height="940%" x="-460%" y="-270%" filterUnits="objectBoundingBox">
            <feMorphology in="SourceAlpha" operator="dilate" radius="1.5" result="shadowSpreadOuter1"/>
            <feOffset dx="-4" dy="15" in="shadowSpreadOuter1" result="shadowOffsetOuter1"/>
            <feGaussianBlur in="shadowOffsetOuter1" result="shadowBlurOuter1" stdDeviation="11"/>
            <feComposite in="shadowBlurOuter1" in2="SourceAlpha" operator="out" result="shadowBlurOuter1"/>
            <feColorMatrix in="shadowBlurOuter1" values="0 0 0 0 0.73577643 0 0 0 0 0.773998916 0 0 0 0 0.911599864 0 0 0 0.674688593 0"/>
        </filter>
        <path id="f" d="M17.899.174l.087.013a3.425 3.425 0 0 1 2.045 1.08c.204.175.374.387.5.625.073.12.134.246.18.378.073.118.129.245.166.378l.265.977.007.04c.06.31.135.643.223.992a7.791 7.791 0 0 1 1.563 1.838l.084.131.013.051c.04.073.128.23.32.56.067.104.141.203.222.296l.039.044.036.049c.546.755.776 1.695.64 2.618a3.48 3.48 0 0 1-1.405 2.384c-.05.04-.105.08-.16.117l.002.007c1.539 5.657 2.944 11.285 3.969 15.394.638 2.553 1.14 4.57 1.39 5.438.267.911.165 1.89-.284 2.726a3.328 3.328 0 0 1-1.694 1.564 4.111 4.111 0 0 1-.463.158 3.599 3.599 0 0 1-2.709-.29 3.382 3.382 0 0 1-1.714-2.149c-.506-1.712-1.216-4.628-1.904-7.447-.402-1.644-.812-3.328-1.182-4.773a12.062 12.062 0 0 1-2.867 1.714 11.24 11.24 0 0 1-1.367.47 10.96 10.96 0 0 1-6.286-.176 11.287 11.287 0 0 1-5.369-3.618c-.732-.85-1.292-2.16-1.716-4a10.719 10.719 0 0 1 .937-7.51 14.53 14.53 0 0 1 5.11-5.508 16.27 16.27 0 0 1 2.506-1.324 13.599 13.599 0 0 1 5.038-1.07l.052-.11c.172-.321.376-.624.61-.903.29-.376.67-.672 1.107-.858.103-.043.209-.08.316-.109a6.733 6.733 0 0 1 1.606-.195l.087-.002zm-6.336 9.578a9.412 9.412 0 0 0-1.471.792c-1.17.776-2.045 1.71-2.593 2.768-.52 1.001-.665 1.938-.443 2.864.166.725.254 1.05.296 1.191a4.225 4.225 0 0 0 3.246 1.533 4.483 4.483 0 0 0 1.854-.33 4.45 4.45 0 0 0 1.545-1.116c.284-.327.672-1.078.91-2.8.118-.862.168-1.732.15-2.602a169.251 169.251 0 0 0-.616-2.826 6.282 6.282 0 0 0-2.878.526z"/>
        <filter id="e" width="328.6%" height="281.5%" x="-125%" y="-47.4%" filterUnits="objectBoundingBox">
            <feMorphology in="SourceAlpha" operator="dilate" radius="1.5" result="shadowSpreadOuter1"/>
            <feOffset dx="-3" dy="19" in="shadowSpreadOuter1" result="shadowOffsetOuter1"/>
            <feGaussianBlur in="shadowOffsetOuter1" result="shadowBlurOuter1" stdDeviation="7"/>
            <feComposite in="shadowBlurOuter1" in2="SourceAlpha" operator="out" result="shadowBlurOuter1"/>
            <feColorMatrix in="shadowBlurOuter1" values="0 0 0 0 0.796078431 0 0 0 0 0.929411765 0 0 0 0 0.635294118 0 0 0 1 0"/>
        </filter>
        <path id="h" d="M4.88 23.674a6.768 6.768 0 0 1-2.497-1.298C.935 21.184.223 19.533.266 17.47l.001-.017c.017-.293.051-.585.104-.874.053-.313.117-.627.19-.93a8.79 8.79 0 0 1 .122-.48c.101-.552.418-1.04.88-1.355a2.033 2.033 0 0 1 1.623-.329c.062.013.122.028.181.045.488.135.91.441 1.193.863.326.468.442 1.051.319 1.609a5.008 5.008 0 0 1-.165.806 3.682 3.682 0 0 0-.112.436 2.935 2.935 0 0 0-.032.31c-.02.686.162 1.178.555 1.504.283.222.608.384.955.475.347.095.704.152 1.063.17.988.03 1.974-.128 2.904-.468.917-.33 1.588-.757 1.993-1.266.45-.577.783-1.237.979-1.943.18-.622.207-1.278.082-1.913-.25-1.167-.989-1.917-2.257-2.288l-.038.002-.055-.006a5.912 5.912 0 0 0-.334-.03l-1.226-.09c-.553-.028-.996-.06-1.315-.096l-.016-.002a6.33 6.33 0 0 1-.576-.101 2.376 2.376 0 0 1-.377-.088 2.085 2.085 0 0 1-1.14-.839c-.519-.704-.904-1.84.193-3.266l.3-.375.048-.123c.061-.15.142-.356.24-.613.099-.258.47-1.495.554-1.728l.01-.023c.11-.275.441-.924.76-1.552.207-.408.466-.916.506-1.018l.007-.017c.08-.19.12-.3.14-.36l.019-.057.195-.348c.058-.106.131-.204.216-.29.206-.249.463-.45.753-.59.205-.102.427-.164.655-.183.167-.02.336-.016.502.012l.153.008.092.026c.068.02.143.042.224.068.057.01.113.024.169.04.115.034.228.075.338.123.28.11.65.273 1.129.497.613.278 1.618.757 3.068 1.462 2.96 1.445 4.638 2.283 5.13 2.564a2.174 2.174 0 0 1 .935 2.71A2.147 2.147 0 0 1 19.55 8.81a2.245 2.245 0 0 1-.495-.21c-.592-.336-2.226-1.16-4.858-2.447-.971-.462-1.8-.848-2.47-1.153l-.999 2.48c.33 0 .659.036.98.109l.067.02.09.026c1.495.428 2.71 1.127 3.61 2.08a7.252 7.252 0 0 1 1.829 3.502 8.747 8.747 0 0 1-.118 3.879 9.832 9.832 0 0 1-1.809 3.566c-.888 1.131-2.15 2.006-3.75 2.6-1.504.571-3.109.824-4.714.742a9.32 9.32 0 0 1-2.032-.33z"/>
        <filter id="g" width="286.4%" height="283.3%" x="-52.3%" y="-47.9%" filterUnits="objectBoundingBox">
            <feMorphology in="SourceAlpha" operator="dilate" radius="1" result="shadowSpreadOuter1"/>
            <feOffset dx="9" dy="12" in="shadowSpreadOuter1" result="shadowOffsetOuter1"/>
            <feGaussianBlur in="shadowOffsetOuter1" result="shadowBlurOuter1" stdDeviation="4.5"/>
            <feComposite in="shadowBlurOuter1" in2="SourceAlpha" operator="out" result="shadowBlurOuter1"/>
            <feColorMatrix in="shadowBlurOuter1" values="0 0 0 0 0.786635298 0 0 0 0 0.681146591 0 0 0 0 0.844174592 0 0 0 0.37270542 0"/>
        </filter>
        <path id="j" d="M8.643 32.605a2.938 2.938 0 0 1-1.594-1.444 3.17 3.17 0 0 1-.21-2.346l.01-.032c.267-.826.592-2.013.965-3.526.381-1.55.646-2.577.783-3.052.528-1.91 1.128-3.975 1.781-6.123.124-.43.551-1.759 1.302-4.05l.006-.019c.339-.98.609-1.77.81-2.365l.274-.943.082-.145.079-.265.07-.104.01-.034.07-.12c.068-.12.136-.227.201-.32.137-.198.294-.38.47-.545l.032-.03.033-.027a3.137 3.137 0 0 1 2.294-.674c.986.081 1.88.61 2.427 1.436.226.317.423.654.59 1.006l.01.02c.299.685.55 1.39.752 2.11.412 1.266.92 3.138 1.507 5.566.705 2.882 1.304 5.539 1.784 7.924 1.846-2.527 4.205-5.54 7.032-8.98l1.205-1.497.05-.172.107-.118c.044-.099.08-.186.119-.267.02-.047.03-.076.034-.086l.03-.108.051-.099c.28-.56.67-1.059 1.146-1.464a3.376 3.376 0 0 1 3.321-.564c.43.168.819.423 1.144.75.878.82 1.715 2.276.775 4.564l-.006.018c-.09.209-.175.392-.25.545-.063.123-.111.215-.145.277a30.462 30.462 0 0 0-.376 2.098l-.004.032c-.702 4.115-2.076 9.944-4.084 17.325l-.006.02a3.17 3.17 0 0 1-1.434 1.867 2.948 2.948 0 0 1-2.387.296 3.47 3.47 0 0 1-.275-.092 3.104 3.104 0 0 1-1.592-1.344 2.955 2.955 0 0 1-.298-2.378 320.15 320.15 0 0 0 2.324-8.975 105.832 105.832 0 0 0-2.536 3.46c-.196.298-.47.739-.817 1.31a66.961 66.961 0 0 0-.93 1.521l-.02.033-.02.03a8 8 0 0 1-1.405 1.654c-1.48 1.261-2.847 1.12-3.735.78a4.056 4.056 0 0 1-.54-.256c-1.004-.584-2.14-1.77-1.942-4.153l.004-.043.006-.042c.03-.193.055-.363.073-.51a3.12 3.12 0 0 0 .016-.165c0-.068.004-.136.012-.204-.054-.347-.176-1.042-.363-2.07a244.668 244.668 0 0 0-1.69-7.796 219.601 219.601 0 0 0-1.19 4.151c-.133.453-.395 1.475-.786 3.054-.398 1.604-.743 2.862-1.025 3.739a2.943 2.943 0 0 1-1.526 1.84 3.149 3.149 0 0 1-2.342.21 3.819 3.819 0 0 1-.262-.089z"/>
        <filter id="i" width="244.2%" height="237.9%" x="-106.6%" y="-36.8%" filterUnits="objectBoundingBox">
            <feMorphology in="SourceAlpha" operator="dilate" radius="1" result="shadowSpreadOuter1"/>
            <feOffset dx="-13" dy="12" in="shadowSpreadOuter1" result="shadowOffsetOuter1"/>
            <feGaussianBlur in="shadowOffsetOuter1" result="shadowBlurOuter1" stdDeviation="4.5"/>
            <feComposite in="shadowBlurOuter1" in2="SourceAlpha" operator="out" result="shadowBlurOuter1"/>
            <feColorMatrix in="shadowBlurOuter1" values="0 0 0 0 0.786635298 0 0 0 0 0.681146591 0 0 0 0 0.844174592 0 0 0 0.37270542 0"/>
        </filter>
        <path id="l" d="M45.32 63.541c-.262 0-.524-.015-.784-.044a6.189 6.189 0 0 1-4.173-2.256l-.048-.057-.04-.056a8.575 8.575 0 0 1-.62-.99l-.028-.048-.024-.053a7.148 7.148 0 0 1-.328-.868c-.012-.032-.04-.089-.072-.161l-.16-.352-.036-.387a2.514 2.514 0 0 0-.096-.356l-.032-.105-.527-2.512c-.56-2.75-.987-4.64-1.278-5.634l-3.637-12.407c-.124-.436-.24-.864-.356-1.284a223.314 223.314 0 0 1-1.85 4.597c-1.74 4.157-3.333 7.328-4.867 9.684a17.38 17.38 0 0 1-3.141 3.951c-1.77 1.653-3.713 2.494-5.776 2.495-.399 0-.797-.032-1.19-.093a6.613 6.613 0 0 1-5.49-4.634l-.017-.053a9.885 9.885 0 0 1-.404-3.485l.003-.065.007-.06a28.328 28.328 0 0 1 .153-1.269l-.447-1.963-.492-2.023c-.773-3.603-1.797-9.055-3.043-16.2-1.24-7.104-2.236-12.44-2.958-15.865-.656-3.338 1.434-6.6 4.72-7.369.448-.1.906-.152 1.365-.154a5.9 5.9 0 0 1 3.274 1 6.292 6.292 0 0 1 2.715 3.82l.018.081c.74 3.514 1.706 8.752 2.95 16.026.661 3.862 1.266 7.218 1.81 10.041a242.328 242.328 0 0 0 4.285-11.11c.797-2.254 1.041-2.985 1.11-3.203l.036-.125 1.145-2.642c.353-.865.613-1.523.794-1.976l.236-1.547a9.097 9.097 0 0 1 1.19-3.433 6.652 6.652 0 0 1 5.897-3.367c.108 0 .22 0 .328.004l.056.004a6.048 6.048 0 0 1 4.277 2.09c.429.421.78.916 1.036 1.462.195.385.328.8.392 1.228.093.29.153.592.18.896.011.121.035.315.091.646l.016.09.211 2.362c.236 2.464.47 4.467.702 5.941.58 3.256 1.55 7.31 2.885 12.056l2.154 7.342c4.49-9.817 8.708-18.45 12.569-25.726a6.238 6.238 0 0 1 5.436-3.254 5.937 5.937 0 0 1 2.885.759 6.191 6.191 0 0 1 2.978 3.687 6.263 6.263 0 0 1-.484 4.733c-4.506 8.533-9.332 18.503-14.347 29.62-1.578 3.609-2.091 4.643-2.34 5.08a23.333 23.333 0 0 1-2.41 3.878 9.23 9.23 0 0 1-2.15 2.109 6.903 6.903 0 0 1-4.259 1.504z"/>
        <filter id="k" width="178.2%" height="188.7%" x="-47.9%" y="-29.4%" filterUnits="objectBoundingBox">
            <feMorphology in="SourceAlpha" operator="dilate" radius="1.15" result="shadowSpreadOuter1"/>
            <feOffset dx="-6" dy="9" in="shadowSpreadOuter1" result="shadowOffsetOuter1"/>
            <feGaussianBlur in="shadowOffsetOuter1" result="shadowBlurOuter1" stdDeviation="7"/>
            <feComposite in="shadowBlurOuter1" in2="SourceAlpha" operator="out" result="shadowBlurOuter1"/>
            <feColorMatrix in="shadowBlurOuter1" values="0 0 0 0 0.796078431 0 0 0 0 0.929411765 0 0 0 0 0.635294118 0 0 0 1 0"/>
        </filter>
    </defs>
    <g fill="none" fill-rule="evenodd" stroke-linejoin="round">
        <path fill="#C9D2F7" stroke="#93A1DB" stroke-width="2" d="M544.038 50.235c.675.716 1.158 1.36 1.476 1.97.38.757.72 1.533 1.02 2.325a2.193 2.193 0 0 1-.026 1.671 2.11 2.11 0 0 1-1.224 1.197 2.227 2.227 0 0 1-1.83-.083 2.082 2.082 0 0 1-1.054-1.176c-.446-1.108-.864-1.942-1.242-2.477-.35-.495-.878-.932-1.57-1.297a4.238 4.238 0 0 0-.098-.05c-1.19-.581-2.33-.515-3.485.202-.763.491-1.643 1.328-2.621 2.494a8.531 8.531 0 0 1 4.202.866c.4.196.785.42 1.153.669 1.947 1.294 3.114 2.946 3.465 4.909.333 1.955-.08 3.743-1.228 5.318-1.119 1.573-2.688 2.573-4.66 2.966-1.647.327-3.326.08-4.991-.735a11.072 11.072 0 0 1-.985-.548 15.568 15.568 0 0 1-2.073-1.51 7.825 7.825 0 0 1-1.568-2.01 8.06 8.06 0 0 1-1.012-3.466 8.34 8.34 0 0 1 .53-3.59c.377-.985 1.208-2.341 2.54-4.144 1.75-2.352 3.408-4.023 4.932-4.968 2.523-1.58 5.12-1.739 7.717-.468a9.356 9.356 0 0 1 2.632 1.935zm-7.797 9.71a5.03 5.03 0 0 0-.553-.318c-1.017-.502-2.101-.59-3.315-.268-.882.238-1.197.363-1.306.416a9.335 9.335 0 0 0-.93.577c-.052.72.113 1.442.473 2.072.19.353.44.67.738.937l.023.02c.423.37.88.7 1.362.987.182.115.37.22.563.316.793.391 1.511.519 2.195.39.838-.159 1.453-.539 1.882-1.162l.008-.012c.42-.556.58-1.266.437-1.952-.132-.713-.662-1.387-1.577-2.003z" opacity=".3"/>
        <path fill="#F9F2FE" stroke="#DDC7E9" stroke-width="2.7" d="M658.827 102.705a16.345 16.345 0 0 1 2.376-.264c2.628-.052 5.243.349 7.731 1.184a5.576 5.576 0 0 1 3.739 3.473 28.015 28.015 0 0 1 7.078 5.438 29.596 29.596 0 0 1 5.539 8.275l.033.075a37.768 37.768 0 0 1 2.38 8.896 27.292 27.292 0 0 1-3.242 16.744c1.1.816 2.165 1.63 3.167 2.431a5.68 5.68 0 0 1 2.102 4.028 5.81 5.81 0 0 1-1.347 4.279 5.735 5.735 0 0 1-4.03 2.074 6.268 6.268 0 0 1-.288.017 5.849 5.849 0 0 1-4.006-1.347l-.034-.025a43.23 43.23 0 0 0-3.515-2.696c-.12.08-.24.158-.36.233a35.85 35.85 0 0 1-6.445 3.567 27.806 27.806 0 0 1-7.575 1.962c-.715.088-1.437.143-2.147.17a25.478 25.478 0 0 1-5.975-.474c-5.005-1.06-9.173-3.396-12.4-6.952a28.534 28.534 0 0 1-6.51-12.481 33.18 33.18 0 0 1-.469-13.744 28.578 28.578 0 0 1 5.257-12.516 26.872 26.872 0 0 1 4.801-4.796 47.531 47.531 0 0 1 5.517-3.86c3.493-2.018 6.309-3.224 8.623-3.691zm-2.257 13.819l-.238.135a30.281 30.281 0 0 0-3.866 2.755 19.918 19.918 0 0 0-2.95 2.879 17.03 17.03 0 0 0-3.095 7.537 21.987 21.987 0 0 0 .265 8.884 16.671 16.671 0 0 0 3.75 7.269 11.395 11.395 0 0 0 6.315 3.584c1.051.218 2.126.307 3.2.265 1.831-.092 3.633-.5 5.325-1.206l-3.427-1.897a5.478 5.478 0 0 1-2.825-3.574 6.044 6.044 0 0 1 .543-4.404 5.575 5.575 0 0 1 3.625-2.838 6.448 6.448 0 0 1 1.333-.196 6.104 6.104 0 0 1 3.107.716l7.238 4.03a15.04 15.04 0 0 0 1.645-6.219 17.261 17.261 0 0 0-1.612-8.404l-.021-.04c-1.665-3.732-4.113-6.427-7.478-8.243a13.369 13.369 0 0 0-7.054-1.603 18.317 18.317 0 0 0-3.78.57z"/>
        <g opacity=".4">
            <g transform="rotate(69 63.68 120.98)">
                <use fill="#000" filter="url(#a)" xlink:href="#b"/>
                <use fill="#C9D2F7" fill-opacity=".99" stroke="#93A1DB" stroke-width="3" xlink:href="#b"/>
            </g>
            <g transform="rotate(69 63.68 120.98)">
                <use fill="#000" filter="url(#c)" xlink:href="#d"/>
                <use fill="#C9D2F7" fill-opacity=".99" stroke="#93A1DB" stroke-width="3" xlink:href="#d"/>
            </g>
        </g>
        <g fill="#C9D2F7" stroke="#93A1DB" stroke-width="1.5" opacity=".5">
            <path d="M517.189 634.823a6.12 6.12 0 0 1-.992-.999c-1.047-1.288-1.518-2.882-1.394-4.733.122-1.79.736-3.58 1.826-5.316a2.826 2.826 0 0 1 1.738-1.25 2.642 2.642 0 0 1 2.107.322c.096.06.19.125.28.196.479.377.813.904.948 1.498.182.71.05 1.469-.363 2.088-.62.954-.945 1.784-.967 2.469l-.002.032c-.067.844.097 1.13.171 1.215.03.033.061.065.094.094.04.013.08.024.12.032.132.023.268.022.402 0 .253-.05.498-.137.726-.259.402-.2.787-.433 1.151-.695.864-.608 1.926-1.631 3.158-3.039 1.956-2.237 3.112-3.517 3.533-3.916 2.019-1.991 4.347-4.192 8.65-7.754a2.634 2.634 0 0 1 2.028-.651 2.755 2.755 0 0 1 1.864.955 2.5 2.5 0 0 1 .633 2.004 2.817 2.817 0 0 1-.998 1.86c-4.073 3.364-6.285 5.464-8.327 7.47-.213.208-.942.995-3.226 3.585-1.492 1.689-2.859 2.994-4.062 3.883-1.802 1.322-3.637 2.014-5.458 2.062a5.479 5.479 0 0 1-3.64-1.153zM543.811 612.817a3.214 3.214 0 0 1-.413-.398 2.989 2.989 0 0 1 .088-4.029 3.002 3.002 0 0 1 4.025-.298c.15.12.288.253.413.398a2.989 2.989 0 0 1-.085 4.03 3.002 3.002 0 0 1-4.027.298z"/>
        </g>
        <g opacity=".3" transform="rotate(-34 1071.66 -753.516)">
            <use fill="#000" filter="url(#e)" xlink:href="#f"/>
            <use fill="#E5FFC5" stroke="#96DA45" stroke-width="3" xlink:href="#f"/>
        </g>
        <g opacity=".3" transform="rotate(14 -1034.598 3087.368)">
            <use fill="#000" filter="url(#g)" xlink:href="#h"/>
            <use fill="#E8D2FB" stroke="#8C43B6" stroke-width="2" xlink:href="#h"/>
        </g>
        <g opacity=".4" transform="rotate(-38 251.234 90.082)">
            <use fill="#000" filter="url(#i)" xlink:href="#j"/>
            <use fill="#E8D2FB" stroke="#8C43B6" stroke-width="2" xlink:href="#j"/>
        </g>
        <g opacity=".4" transform="rotate(-35 763.782 229.37)">
            <use fill="#000" filter="url(#k)" xlink:href="#l"/>
            <use fill="#E5FFC5" stroke="#96DA45" stroke-width="2.3" xlink:href="#l"/>
        </g>
        <g stroke="#96DA45" stroke-width="2" opacity=".3">
            <path fill="#E5FFC5" d="M353.247 79.976a2.774 2.774 0 0 1-.186.276 2.424 2.424 0 0 1-1.588.948 2.31 2.31 0 0 1-1.814-.474c-.979-.73-2.564-2.033-4.098-3.292-.895-.735-1.81-1.487-2.606-2.126a8.172 8.172 0 0 1-.848 2.108 7.378 7.378 0 0 1-4.026 3.286c-1.41.5-2.94.576-4.4.215-.746-.166-1.589-.652-2.577-1.485a7.388 7.388 0 0 1-2.584-4.486 9.91 9.91 0 0 1 .5-5.096c.22-.606.492-1.19.814-1.747a9.163 9.163 0 0 1 2.29-2.643l-.017-.08a3.604 3.604 0 0 1-.042-.744c.002-.323.087-.64.247-.92.038-.066.08-.129.127-.19.231-.284.496-.54.79-.761l.046-.037.052-.028a2.318 2.318 0 0 1 1.553-.245c.183.012.362.058.529.137a1.4 1.4 0 0 1 .253.133c.088.034.17.081.245.139l.547.425.02.02c.16.144.337.296.529.45a5.32 5.32 0 0 1 1.604.366l.099.038.028.022c.052.024.164.074.404.176.08.029.16.053.242.07l.04.009.039.012c.607.19 1.118.61 1.425 1.169.329.57.409 1.25.22 1.876-.01.044-.024.087-.038.13l.004.003c3.163 2.462 6.242 4.964 8.49 6.79 1.396 1.135 2.5 2.032 2.992 2.405.52.388.868.965.969 1.605a2.265 2.265 0 0 1-.274 1.546z"/>
            <path fill="#FFF" d="M333.888 75.645a3.158 3.158 0 0 0 2.585-.56c.385-.27.71-.616.953-1.017.237-.41.383-.864.428-1.332.026-.316-.072-.922-.68-2.022a11.763 11.763 0 0 0-1.043-1.569c-.578-.5-1.112-.955-1.593-1.356a4.75 4.75 0 0 0-1.473 1.586 7.024 7.024 0 0 0-.525 1.112c-.354.97-.465 1.897-.33 2.753.129.81.45 1.415.985 1.85.413.345.607.493.693.555z"/>
        </g>
        <g stroke="#93A1DB" stroke-width="2" opacity=".5">
            <path fill="#C9D2F7" d="M183.858 612.795a7.664 7.664 0 0 1-2.354 1.276 6.702 6.702 0 0 1-3.998.183 8.93 8.93 0 0 1-3.513-1.822l-.016-.013a14.343 14.343 0 0 1-2.029-2.252 9.306 9.306 0 0 1-1.406-2.962 13.152 13.152 0 0 1-.5-3.314 9.412 9.412 0 0 1 .673-3.553 11.3 11.3 0 0 1 2.131-3.444c.593-.676 1.241-1.3 1.938-1.866.408-.328.844-.62 1.302-.87l-.409-.579c-.816-1.137-.569-2.747.558-3.64l.102-.077a2.66 2.66 0 0 1 1.976-.5c.69.104 1.303.484 1.7 1.054a94.465 94.465 0 0 0 2.638 3.537c.446.3.788.731.983 1.237.432.565 1.046 1.345 1.874 2.381.778.974 1.28 1.595 1.492 1.849.359.264.645.615.835 1.02 1.02 1.31 1.927 2.502 2.695 3.543a2.65 2.65 0 0 1 .479 1.966 2.566 2.566 0 0 1-1.076 1.77 2.702 2.702 0 0 1-1.902.526 2.52 2.52 0 0 1-.895-.25c-.814 2.104-1.915 3.717-3.278 4.8z"/>
            <path fill="#FFF" d="M178.522 599.446c-.472.404-.913.847-1.316 1.322a6.08 6.08 0 0 0-1.242 2.154 4.861 4.861 0 0 0-.234 2.14 6.92 6.92 0 0 0 .615 2.031c.28.604.699 1.122 1.224 1.513l.02.016c.926.744 1.754.964 2.533.674.25-.09.487-.225.696-.4.75-.61 1.408-1.77 1.953-3.447.317-1.004.383-1.39.395-1.531.001-.025.002-.19-.05-.887l-1.469-1.883c-.709-.909-1.254-1.619-1.658-2.159a2.539 2.539 0 0 0-.956.114 2.505 2.505 0 0 0-.51.343h-.001z"/>
        </g>
    </g>
</svg>
